<mxGraphModel dx="1050" dy="957" grid="1" gridSize="10" guides="1" tooltips="1" connect="1" arrows="1" fold="1" page="0" pageScale="1" pageWidth="1100" pageHeight="850" background="#ffffff" math="0" shadow="0">
  <root>
    <mxCell id="0" />
    <mxCell id="1" parent="0" />
    <mxCell id="2e49270ec7c68f3f-57" value="" style="edgeStyle=orthogonalEdgeStyle;html=1;endArrow=ERmany;startArrow=ERmany;labelBackgroundColor=none;fontFamily=Verdana;fontSize=14;entryX=1;entryY=0.5;exitX=0;exitY=0.5;exitDx=0;exitDy=0;strokeColor=#006658;fontColor=default;" parent="1" edge="1">
      <mxGeometry width="100" height="100" relative="1" as="geometry">
        <mxPoint x="600" y="60" as="sourcePoint" />
        <mxPoint x="460" y="128" as="targetPoint" />
        <Array as="points">
          <mxPoint x="600" y="64" />
          <mxPoint x="520" y="64" />
          <mxPoint x="520" y="125" />
          <mxPoint x="460" y="125" />
        </Array>
      </mxGeometry>
    </mxCell>
    <mxCell id="2e49270ec7c68f3f-60" value="" style="edgeStyle=entityRelationEdgeStyle;html=1;endArrow=ERzeroToOne;startArrow=ERmandOne;labelBackgroundColor=none;fontFamily=Verdana;fontSize=14;exitX=1;exitY=0.5;entryX=0;entryY=0.5;entryDx=0;entryDy=0;strokeColor=#006658;fontColor=default;" parent="1" target="EWD9UEPrraGSUW-WTAQi-320" edge="1">
      <mxGeometry width="100" height="100" relative="1" as="geometry">
        <mxPoint x="450" y="648" as="sourcePoint" />
        <mxPoint x="575.6800000000001" y="527.3499999999999" as="targetPoint" />
        <Array as="points">
          <mxPoint x="520" y="600" />
          <mxPoint x="530" y="610" />
        </Array>
      </mxGeometry>
    </mxCell>
    <mxCell id="2e49270ec7c68f3f-80" value="USER" style="swimlane;html=1;fontStyle=0;childLayout=stackLayout;horizontal=1;startSize=26;fillColor=#dae8fc;horizontalStack=0;resizeParent=1;resizeLast=0;collapsible=1;marginBottom=0;swimlaneFillColor=#ffffff;align=center;rounded=1;shadow=0;comic=0;labelBackgroundColor=none;strokeWidth=1;fontFamily=Verdana;fontSize=14;strokeColor=#6c8ebf;" parent="1" vertex="1">
      <mxGeometry x="30" y="310" width="160" height="200" as="geometry" />
    </mxCell>
    <mxCell id="2e49270ec7c68f3f-81" value="ID&lt;span style=&quot;white-space: pre;&quot;&gt;&#x9;&lt;/span&gt;" style="shape=partialRectangle;top=0;left=0;right=0;bottom=1;html=1;align=left;verticalAlign=middle;fillColor=none;spacingLeft=34;spacingRight=4;whiteSpace=wrap;overflow=hidden;rotatable=0;points=[[0,0.5],[1,0.5]];portConstraint=eastwest;dropTarget=0;fontStyle=5;labelBackgroundColor=none;strokeColor=#006658;fontColor=#5C5C5C;rounded=1;" parent="2e49270ec7c68f3f-80" vertex="1">
      <mxGeometry y="26" width="160" height="30" as="geometry" />
    </mxCell>
    <mxCell id="2e49270ec7c68f3f-82" value="PK" style="shape=partialRectangle;top=0;left=0;bottom=0;html=1;fillColor=none;align=left;verticalAlign=middle;spacingLeft=4;spacingRight=4;whiteSpace=wrap;overflow=hidden;rotatable=0;points=[];portConstraint=eastwest;part=1;labelBackgroundColor=none;strokeColor=#006658;fontColor=#5C5C5C;rounded=1;" parent="2e49270ec7c68f3f-81" vertex="1" connectable="0">
      <mxGeometry width="30" height="30" as="geometry" />
    </mxCell>
    <mxCell id="2e49270ec7c68f3f-83" value="Username" style="shape=partialRectangle;top=0;left=0;right=0;bottom=0;html=1;align=left;verticalAlign=top;fillColor=none;spacingLeft=34;spacingRight=4;whiteSpace=wrap;overflow=hidden;rotatable=0;points=[[0,0.5],[1,0.5]];portConstraint=eastwest;dropTarget=0;labelBackgroundColor=none;strokeColor=#006658;fontColor=#5C5C5C;rounded=1;" parent="2e49270ec7c68f3f-80" vertex="1">
      <mxGeometry y="56" width="160" height="26" as="geometry" />
    </mxCell>
    <mxCell id="2e49270ec7c68f3f-84" value="" style="shape=partialRectangle;top=0;left=0;bottom=0;html=1;fillColor=none;align=left;verticalAlign=top;spacingLeft=4;spacingRight=4;whiteSpace=wrap;overflow=hidden;rotatable=0;points=[];portConstraint=eastwest;part=1;labelBackgroundColor=none;strokeColor=#006658;fontColor=#5C5C5C;rounded=1;" parent="2e49270ec7c68f3f-83" vertex="1" connectable="0">
      <mxGeometry width="30" height="26" as="geometry" />
    </mxCell>
    <mxCell id="2e49270ec7c68f3f-85" value="Email" style="shape=partialRectangle;top=0;left=0;right=0;bottom=0;html=1;align=left;verticalAlign=top;fillColor=none;spacingLeft=34;spacingRight=4;whiteSpace=wrap;overflow=hidden;rotatable=0;points=[[0,0.5],[1,0.5]];portConstraint=eastwest;dropTarget=0;labelBackgroundColor=none;strokeColor=#006658;fontColor=#5C5C5C;rounded=1;" parent="2e49270ec7c68f3f-80" vertex="1">
      <mxGeometry y="82" width="160" height="26" as="geometry" />
    </mxCell>
    <mxCell id="2e49270ec7c68f3f-86" value="" style="shape=partialRectangle;top=0;left=0;bottom=0;html=1;fillColor=none;align=left;verticalAlign=top;spacingLeft=4;spacingRight=4;whiteSpace=wrap;overflow=hidden;rotatable=0;points=[];portConstraint=eastwest;part=1;labelBackgroundColor=none;strokeColor=#006658;fontColor=#5C5C5C;rounded=1;" parent="2e49270ec7c68f3f-85" vertex="1" connectable="0">
      <mxGeometry width="30" height="26" as="geometry" />
    </mxCell>
    <mxCell id="2e49270ec7c68f3f-87" value="Password" style="shape=partialRectangle;top=0;left=0;right=0;bottom=0;html=1;align=left;verticalAlign=top;fillColor=none;spacingLeft=34;spacingRight=4;whiteSpace=wrap;overflow=hidden;rotatable=0;points=[[0,0.5],[1,0.5]];portConstraint=eastwest;dropTarget=0;labelBackgroundColor=none;strokeColor=#006658;fontColor=#5C5C5C;rounded=1;" parent="2e49270ec7c68f3f-80" vertex="1">
      <mxGeometry y="108" width="160" height="26" as="geometry" />
    </mxCell>
    <mxCell id="2e49270ec7c68f3f-88" value="" style="shape=partialRectangle;top=0;left=0;bottom=0;html=1;fillColor=none;align=left;verticalAlign=top;spacingLeft=4;spacingRight=4;whiteSpace=wrap;overflow=hidden;rotatable=0;points=[];portConstraint=eastwest;part=1;labelBackgroundColor=none;strokeColor=#006658;fontColor=#5C5C5C;rounded=1;" parent="2e49270ec7c68f3f-87" vertex="1" connectable="0">
      <mxGeometry width="30" height="26" as="geometry" />
    </mxCell>
    <mxCell id="2e49270ec7c68f3f-89" value="&#xa;&lt;span style=&quot;color: rgb(0, 0, 0); font-family: Helvetica; font-size: 12px; font-style: normal; font-variant-ligatures: normal; font-variant-caps: normal; font-weight: 400; letter-spacing: normal; orphans: 2; text-align: left; text-indent: 0px; text-transform: none; widows: 2; word-spacing: 0px; -webkit-text-stroke-width: 0px; white-space: normal; background-color: rgb(251, 251, 251); text-decoration-thickness: initial; text-decoration-style: initial; text-decoration-color: initial; display: inline !important; float: none;&quot;&gt;Password&lt;/span&gt;&#xa;&#xa;" style="shape=partialRectangle;top=0;left=0;right=0;bottom=0;html=1;align=left;verticalAlign=top;fillColor=none;spacingLeft=34;spacingRight=4;whiteSpace=wrap;overflow=hidden;rotatable=0;points=[[0,0.5],[1,0.5]];portConstraint=eastwest;dropTarget=0;labelBackgroundColor=none;strokeColor=#006658;fontColor=#5C5C5C;rounded=1;" parent="2e49270ec7c68f3f-80" vertex="1">
      <mxGeometry y="134" width="160" height="10" as="geometry" />
    </mxCell>
    <mxCell id="2e49270ec7c68f3f-90" value="" style="shape=partialRectangle;top=0;left=0;bottom=0;html=1;fillColor=none;align=left;verticalAlign=top;spacingLeft=4;spacingRight=4;whiteSpace=wrap;overflow=hidden;rotatable=0;points=[];portConstraint=eastwest;part=1;labelBackgroundColor=none;strokeColor=#006658;fontColor=#5C5C5C;rounded=1;" parent="2e49270ec7c68f3f-89" vertex="1" connectable="0">
      <mxGeometry width="30" height="10" as="geometry" />
    </mxCell>
    <mxCell id="EWD9UEPrraGSUW-WTAQi-1" value="is_active" style="shape=partialRectangle;top=0;left=0;right=0;bottom=0;html=1;align=left;verticalAlign=top;fillColor=none;spacingLeft=34;spacingRight=4;whiteSpace=wrap;overflow=hidden;rotatable=0;points=[[0,0.5],[1,0.5]];portConstraint=eastwest;dropTarget=0;labelBackgroundColor=none;strokeColor=#006658;fontColor=#5C5C5C;rounded=1;" parent="2e49270ec7c68f3f-80" vertex="1">
      <mxGeometry y="144" width="160" height="26" as="geometry" />
    </mxCell>
    <mxCell id="EWD9UEPrraGSUW-WTAQi-2" value="" style="shape=partialRectangle;top=0;left=0;bottom=0;html=1;fillColor=none;align=left;verticalAlign=top;spacingLeft=4;spacingRight=4;whiteSpace=wrap;overflow=hidden;rotatable=0;points=[];portConstraint=eastwest;part=1;labelBackgroundColor=none;strokeColor=#006658;fontColor=#5C5C5C;rounded=1;" parent="EWD9UEPrraGSUW-WTAQi-1" connectable="0" vertex="1">
      <mxGeometry width="30" height="26" as="geometry" />
    </mxCell>
    <mxCell id="EWD9UEPrraGSUW-WTAQi-5" value="date_joined" style="shape=partialRectangle;top=0;left=0;right=0;bottom=0;html=1;align=left;verticalAlign=top;fillColor=none;spacingLeft=34;spacingRight=4;whiteSpace=wrap;overflow=hidden;rotatable=0;points=[[0,0.5],[1,0.5]];portConstraint=eastwest;dropTarget=0;labelBackgroundColor=none;strokeColor=#006658;fontColor=#5C5C5C;rounded=1;" parent="2e49270ec7c68f3f-80" vertex="1">
      <mxGeometry y="170" width="160" height="26" as="geometry" />
    </mxCell>
    <mxCell id="EWD9UEPrraGSUW-WTAQi-6" value="" style="shape=partialRectangle;top=0;left=0;bottom=0;html=1;fillColor=none;align=left;verticalAlign=top;spacingLeft=4;spacingRight=4;whiteSpace=wrap;overflow=hidden;rotatable=0;points=[];portConstraint=eastwest;part=1;labelBackgroundColor=none;strokeColor=#006658;fontColor=#5C5C5C;rounded=1;" parent="EWD9UEPrraGSUW-WTAQi-5" connectable="0" vertex="1">
      <mxGeometry width="30" height="26" as="geometry" />
    </mxCell>
    <mxCell id="2e49270ec7c68f3f-91" value="" style="edgeStyle=orthogonalEdgeStyle;html=1;endArrow=ERzeroToOne;endFill=1;labelBackgroundColor=none;fontFamily=Verdana;fontSize=14;entryX=0;entryY=0.5;exitX=1;exitY=0.5;strokeColor=#006658;fontColor=default;" parent="1" source="2e49270ec7c68f3f-81" edge="1">
      <mxGeometry width="100" height="100" relative="1" as="geometry">
        <mxPoint x="70" y="300" as="sourcePoint" />
        <mxPoint x="290" y="184" as="targetPoint" />
        <Array as="points">
          <mxPoint x="230" y="399" />
          <mxPoint x="230" y="181" />
        </Array>
      </mxGeometry>
    </mxCell>
    <mxCell id="2e49270ec7c68f3f-92" value="" style="edgeStyle=orthogonalEdgeStyle;html=1;endArrow=ERzeroToOne;endFill=1;labelBackgroundColor=none;fontFamily=Verdana;fontSize=14;entryX=0.013;entryY=-0.218;exitX=1;exitY=0.5;strokeColor=#006658;fontColor=default;entryDx=0;entryDy=0;entryPerimeter=0;" parent="1" source="2e49270ec7c68f3f-87" target="EWD9UEPrraGSUW-WTAQi-278" edge="1">
      <mxGeometry width="100" height="100" relative="1" as="geometry">
        <mxPoint x="200.35294117647072" y="408.9411764705883" as="sourcePoint" />
        <mxPoint x="290" y="679" as="targetPoint" />
        <Array as="points">
          <mxPoint x="190" y="479" />
          <mxPoint x="220" y="479" />
          <mxPoint x="220" y="679" />
          <mxPoint x="301" y="679" />
        </Array>
      </mxGeometry>
    </mxCell>
    <mxCell id="EWD9UEPrraGSUW-WTAQi-39" value="" style="endArrow=classic;html=1;rounded=1;fontSize=12;startSize=8;endSize=8;curved=1;exitX=0.406;exitY=1.141;exitDx=0;exitDy=0;exitPerimeter=0;labelBackgroundColor=none;strokeColor=#006658;fontColor=default;" parent="1" source="EWD9UEPrraGSUW-WTAQi-231" edge="1">
      <mxGeometry width="50" height="50" relative="1" as="geometry">
        <mxPoint x="366.8799999999999" y="224.42399999999998" as="sourcePoint" />
        <mxPoint x="365" y="320" as="targetPoint" />
      </mxGeometry>
    </mxCell>
    <mxCell id="EWD9UEPrraGSUW-WTAQi-88" value="TASK" style="swimlane;html=1;fontStyle=0;childLayout=stackLayout;horizontal=1;startSize=26;fillColor=#d5e8d4;horizontalStack=0;resizeParent=1;resizeLast=0;collapsible=1;marginBottom=0;swimlaneFillColor=#ffffff;align=center;rounded=1;shadow=0;comic=0;labelBackgroundColor=none;strokeWidth=1;fontFamily=Verdana;fontSize=14;strokeColor=#82b366;" parent="1" vertex="1">
      <mxGeometry x="300" y="15" width="160" height="252" as="geometry" />
    </mxCell>
    <mxCell id="EWD9UEPrraGSUW-WTAQi-89" value="id&lt;span style=&quot;white-space: pre;&quot;&gt;&#x9;&lt;/span&gt;" style="shape=partialRectangle;top=0;left=0;right=0;bottom=1;html=1;align=left;verticalAlign=middle;fillColor=none;spacingLeft=34;spacingRight=4;whiteSpace=wrap;overflow=hidden;rotatable=0;points=[[0,0.5],[1,0.5]];portConstraint=eastwest;dropTarget=0;fontStyle=5;labelBackgroundColor=none;strokeColor=#006658;fontColor=#5C5C5C;rounded=1;" parent="EWD9UEPrraGSUW-WTAQi-88" vertex="1">
      <mxGeometry y="26" width="160" height="18" as="geometry" />
    </mxCell>
    <mxCell id="EWD9UEPrraGSUW-WTAQi-90" value="PK" style="shape=partialRectangle;top=0;left=0;bottom=0;html=1;fillColor=none;align=left;verticalAlign=middle;spacingLeft=4;spacingRight=4;whiteSpace=wrap;overflow=hidden;rotatable=0;points=[];portConstraint=eastwest;part=1;labelBackgroundColor=none;strokeColor=#006658;fontColor=#5C5C5C;rounded=1;" parent="EWD9UEPrraGSUW-WTAQi-89" connectable="0" vertex="1">
      <mxGeometry width="30" height="18" as="geometry" />
    </mxCell>
    <mxCell id="EWD9UEPrraGSUW-WTAQi-91" value="title" style="shape=partialRectangle;top=0;left=0;right=0;bottom=0;html=1;align=left;verticalAlign=top;fillColor=none;spacingLeft=34;spacingRight=4;whiteSpace=wrap;overflow=hidden;rotatable=0;points=[[0,0.5],[1,0.5]];portConstraint=eastwest;dropTarget=0;labelBackgroundColor=none;strokeColor=#006658;fontColor=#5C5C5C;rounded=1;" parent="EWD9UEPrraGSUW-WTAQi-88" vertex="1">
      <mxGeometry y="44" width="160" height="26" as="geometry" />
    </mxCell>
    <mxCell id="EWD9UEPrraGSUW-WTAQi-92" value="" style="shape=partialRectangle;top=0;left=0;bottom=0;html=1;fillColor=none;align=left;verticalAlign=top;spacingLeft=4;spacingRight=4;whiteSpace=wrap;overflow=hidden;rotatable=0;points=[];portConstraint=eastwest;part=1;labelBackgroundColor=none;strokeColor=#006658;fontColor=#5C5C5C;rounded=1;" parent="EWD9UEPrraGSUW-WTAQi-91" connectable="0" vertex="1">
      <mxGeometry width="30" height="26" as="geometry" />
    </mxCell>
    <mxCell id="EWD9UEPrraGSUW-WTAQi-93" value="description" style="shape=partialRectangle;top=0;left=0;right=0;bottom=0;html=1;align=left;verticalAlign=top;fillColor=none;spacingLeft=34;spacingRight=4;whiteSpace=wrap;overflow=hidden;rotatable=0;points=[[0,0.5],[1,0.5]];portConstraint=eastwest;dropTarget=0;labelBackgroundColor=none;strokeColor=#006658;fontColor=#5C5C5C;rounded=1;" parent="EWD9UEPrraGSUW-WTAQi-88" vertex="1">
      <mxGeometry y="70" width="160" height="26" as="geometry" />
    </mxCell>
    <mxCell id="EWD9UEPrraGSUW-WTAQi-94" value="" style="shape=partialRectangle;top=0;left=0;bottom=0;html=1;fillColor=none;align=left;verticalAlign=top;spacingLeft=4;spacingRight=4;whiteSpace=wrap;overflow=hidden;rotatable=0;points=[];portConstraint=eastwest;part=1;labelBackgroundColor=none;strokeColor=#006658;fontColor=#5C5C5C;rounded=1;" parent="EWD9UEPrraGSUW-WTAQi-93" connectable="0" vertex="1">
      <mxGeometry width="30" height="26" as="geometry" />
    </mxCell>
    <mxCell id="EWD9UEPrraGSUW-WTAQi-95" value="created_at" style="shape=partialRectangle;top=0;left=0;right=0;bottom=0;html=1;align=left;verticalAlign=top;fillColor=none;spacingLeft=34;spacingRight=4;whiteSpace=wrap;overflow=hidden;rotatable=0;points=[[0,0.5],[1,0.5]];portConstraint=eastwest;dropTarget=0;labelBackgroundColor=none;strokeColor=#006658;fontColor=#5C5C5C;rounded=1;" parent="EWD9UEPrraGSUW-WTAQi-88" vertex="1">
      <mxGeometry y="96" width="160" height="26" as="geometry" />
    </mxCell>
    <mxCell id="EWD9UEPrraGSUW-WTAQi-96" value="" style="shape=partialRectangle;top=0;left=0;bottom=0;html=1;fillColor=none;align=left;verticalAlign=top;spacingLeft=4;spacingRight=4;whiteSpace=wrap;overflow=hidden;rotatable=0;points=[];portConstraint=eastwest;part=1;labelBackgroundColor=none;strokeColor=#006658;fontColor=#5C5C5C;rounded=1;" parent="EWD9UEPrraGSUW-WTAQi-95" connectable="0" vertex="1">
      <mxGeometry width="30" height="26" as="geometry" />
    </mxCell>
    <mxCell id="EWD9UEPrraGSUW-WTAQi-221" value="updated_at" style="shape=partialRectangle;top=0;left=0;right=0;bottom=0;html=1;align=left;verticalAlign=top;fillColor=none;spacingLeft=34;spacingRight=4;whiteSpace=wrap;overflow=hidden;rotatable=0;points=[[0,0.5],[1,0.5]];portConstraint=eastwest;dropTarget=0;labelBackgroundColor=none;strokeColor=#006658;fontColor=#5C5C5C;rounded=1;" parent="EWD9UEPrraGSUW-WTAQi-88" vertex="1">
      <mxGeometry y="122" width="160" height="26" as="geometry" />
    </mxCell>
    <mxCell id="EWD9UEPrraGSUW-WTAQi-222" value="" style="shape=partialRectangle;top=0;left=0;bottom=0;html=1;fillColor=none;align=left;verticalAlign=top;spacingLeft=4;spacingRight=4;whiteSpace=wrap;overflow=hidden;rotatable=0;points=[];portConstraint=eastwest;part=1;labelBackgroundColor=none;strokeColor=#006658;fontColor=#5C5C5C;rounded=1;" parent="EWD9UEPrraGSUW-WTAQi-221" connectable="0" vertex="1">
      <mxGeometry width="30" height="26" as="geometry" />
    </mxCell>
    <mxCell id="EWD9UEPrraGSUW-WTAQi-223" value="due_at" style="shape=partialRectangle;top=0;left=0;right=0;bottom=0;html=1;align=left;verticalAlign=top;fillColor=none;spacingLeft=34;spacingRight=4;whiteSpace=wrap;overflow=hidden;rotatable=0;points=[[0,0.5],[1,0.5]];portConstraint=eastwest;dropTarget=0;labelBackgroundColor=none;strokeColor=#006658;fontColor=#5C5C5C;rounded=1;" parent="EWD9UEPrraGSUW-WTAQi-88" vertex="1">
      <mxGeometry y="148" width="160" height="26" as="geometry" />
    </mxCell>
    <mxCell id="EWD9UEPrraGSUW-WTAQi-224" value="" style="shape=partialRectangle;top=0;left=0;bottom=0;html=1;fillColor=none;align=left;verticalAlign=top;spacingLeft=4;spacingRight=4;whiteSpace=wrap;overflow=hidden;rotatable=0;points=[];portConstraint=eastwest;part=1;labelBackgroundColor=none;strokeColor=#006658;fontColor=#5C5C5C;rounded=1;" parent="EWD9UEPrraGSUW-WTAQi-223" connectable="0" vertex="1">
      <mxGeometry width="30" height="26" as="geometry" />
    </mxCell>
    <mxCell id="EWD9UEPrraGSUW-WTAQi-227" value="status" style="shape=partialRectangle;top=0;left=0;right=0;bottom=0;html=1;align=left;verticalAlign=top;fillColor=none;spacingLeft=34;spacingRight=4;whiteSpace=wrap;overflow=hidden;rotatable=0;points=[[0,0.5],[1,0.5]];portConstraint=eastwest;dropTarget=0;labelBackgroundColor=none;strokeColor=#006658;fontColor=#5C5C5C;rounded=1;" parent="EWD9UEPrraGSUW-WTAQi-88" vertex="1">
      <mxGeometry y="174" width="160" height="26" as="geometry" />
    </mxCell>
    <mxCell id="EWD9UEPrraGSUW-WTAQi-228" value="" style="shape=partialRectangle;top=0;left=0;bottom=0;html=1;fillColor=none;align=left;verticalAlign=top;spacingLeft=4;spacingRight=4;whiteSpace=wrap;overflow=hidden;rotatable=0;points=[];portConstraint=eastwest;part=1;labelBackgroundColor=none;strokeColor=#006658;fontColor=#5C5C5C;rounded=1;" parent="EWD9UEPrraGSUW-WTAQi-227" connectable="0" vertex="1">
      <mxGeometry width="30" height="26" as="geometry" />
    </mxCell>
    <mxCell id="EWD9UEPrraGSUW-WTAQi-229" value="priority" style="shape=partialRectangle;top=0;left=0;right=0;bottom=0;html=1;align=left;verticalAlign=top;fillColor=none;spacingLeft=34;spacingRight=4;whiteSpace=wrap;overflow=hidden;rotatable=0;points=[[0,0.5],[1,0.5]];portConstraint=eastwest;dropTarget=0;labelBackgroundColor=none;strokeColor=#006658;fontColor=#5C5C5C;rounded=1;" parent="EWD9UEPrraGSUW-WTAQi-88" vertex="1">
      <mxGeometry y="200" width="160" height="26" as="geometry" />
    </mxCell>
    <mxCell id="EWD9UEPrraGSUW-WTAQi-230" value="" style="shape=partialRectangle;top=0;left=0;bottom=0;html=1;fillColor=none;align=left;verticalAlign=top;spacingLeft=4;spacingRight=4;whiteSpace=wrap;overflow=hidden;rotatable=0;points=[];portConstraint=eastwest;part=1;labelBackgroundColor=none;strokeColor=#006658;fontColor=#5C5C5C;rounded=1;" parent="EWD9UEPrraGSUW-WTAQi-229" connectable="0" vertex="1">
      <mxGeometry width="30" height="26" as="geometry" />
    </mxCell>
    <mxCell id="EWD9UEPrraGSUW-WTAQi-231" value="user_id" style="shape=partialRectangle;top=0;left=0;right=0;bottom=0;html=1;align=left;verticalAlign=top;fillColor=none;spacingLeft=34;spacingRight=4;whiteSpace=wrap;overflow=hidden;rotatable=0;points=[[0,0.5],[1,0.5]];portConstraint=eastwest;dropTarget=0;labelBackgroundColor=none;strokeColor=#006658;fontColor=#5C5C5C;rounded=1;" parent="EWD9UEPrraGSUW-WTAQi-88" vertex="1">
      <mxGeometry y="226" width="160" height="26" as="geometry" />
    </mxCell>
    <mxCell id="EWD9UEPrraGSUW-WTAQi-232" value="FK" style="shape=partialRectangle;top=0;left=0;bottom=0;html=1;fillColor=none;align=left;verticalAlign=top;spacingLeft=4;spacingRight=4;whiteSpace=wrap;overflow=hidden;rotatable=0;points=[];portConstraint=eastwest;part=1;labelBackgroundColor=none;strokeColor=#006658;fontColor=#5C5C5C;rounded=1;" parent="EWD9UEPrraGSUW-WTAQi-231" connectable="0" vertex="1">
      <mxGeometry width="30" height="26" as="geometry" />
    </mxCell>
    <mxCell id="EWD9UEPrraGSUW-WTAQi-125" value="COMMENTS" style="swimlane;html=1;fontStyle=0;childLayout=stackLayout;horizontal=1;startSize=26;fillColor=#f8cecc;horizontalStack=0;resizeParent=1;resizeLast=0;collapsible=1;marginBottom=0;swimlaneFillColor=#ffffff;align=center;rounded=1;shadow=0;comic=0;labelBackgroundColor=none;strokeWidth=1;fontFamily=Verdana;fontSize=14;strokeColor=#b85450;" parent="1" vertex="1">
      <mxGeometry x="602" y="-10" width="170" height="180" as="geometry" />
    </mxCell>
    <mxCell id="EWD9UEPrraGSUW-WTAQi-126" value="id" style="shape=partialRectangle;top=0;left=0;right=0;bottom=0;html=1;align=left;verticalAlign=middle;fillColor=none;spacingLeft=60;spacingRight=4;whiteSpace=wrap;overflow=hidden;rotatable=0;points=[[0,0.5],[1,0.5]];portConstraint=eastwest;dropTarget=0;fontStyle=5;labelBackgroundColor=none;strokeColor=#006658;fontColor=#5C5C5C;rounded=1;" parent="EWD9UEPrraGSUW-WTAQi-125" vertex="1">
      <mxGeometry y="26" width="170" height="30" as="geometry" />
    </mxCell>
    <mxCell id="EWD9UEPrraGSUW-WTAQi-127" value="PK" style="shape=partialRectangle;fontStyle=1;top=0;left=0;bottom=0;html=1;fillColor=none;align=left;verticalAlign=middle;spacingLeft=4;spacingRight=4;whiteSpace=wrap;overflow=hidden;rotatable=0;points=[];portConstraint=eastwest;part=1;labelBackgroundColor=none;strokeColor=#006658;fontColor=#5C5C5C;rounded=1;" parent="EWD9UEPrraGSUW-WTAQi-126" connectable="0" vertex="1">
      <mxGeometry width="56" height="30" as="geometry" />
    </mxCell>
    <mxCell id="EWD9UEPrraGSUW-WTAQi-128" value="content" style="shape=partialRectangle;top=0;left=0;right=0;bottom=1;html=1;align=left;verticalAlign=middle;fillColor=none;spacingLeft=60;spacingRight=4;whiteSpace=wrap;overflow=hidden;rotatable=0;points=[[0,0.5],[1,0.5]];portConstraint=eastwest;dropTarget=0;fontStyle=5;labelBackgroundColor=none;strokeColor=#006658;fontColor=#5C5C5C;rounded=1;" parent="EWD9UEPrraGSUW-WTAQi-125" vertex="1">
      <mxGeometry y="56" width="170" height="30" as="geometry" />
    </mxCell>
    <mxCell id="EWD9UEPrraGSUW-WTAQi-129" value="" style="shape=partialRectangle;fontStyle=1;top=0;left=0;bottom=0;html=1;fillColor=none;align=left;verticalAlign=middle;spacingLeft=4;spacingRight=4;whiteSpace=wrap;overflow=hidden;rotatable=0;points=[];portConstraint=eastwest;part=1;labelBackgroundColor=none;strokeColor=#006658;fontColor=#5C5C5C;rounded=1;" parent="EWD9UEPrraGSUW-WTAQi-128" connectable="0" vertex="1">
      <mxGeometry width="56" height="30" as="geometry" />
    </mxCell>
    <mxCell id="EWD9UEPrraGSUW-WTAQi-292" value="created_at" style="shape=partialRectangle;top=0;left=0;right=0;bottom=1;html=1;align=left;verticalAlign=middle;fillColor=none;spacingLeft=60;spacingRight=4;whiteSpace=wrap;overflow=hidden;rotatable=0;points=[[0,0.5],[1,0.5]];portConstraint=eastwest;dropTarget=0;fontStyle=5;labelBackgroundColor=none;strokeColor=#006658;fontColor=#5C5C5C;rounded=1;" parent="EWD9UEPrraGSUW-WTAQi-125" vertex="1">
      <mxGeometry y="86" width="170" height="30" as="geometry" />
    </mxCell>
    <mxCell id="EWD9UEPrraGSUW-WTAQi-293" value="" style="shape=partialRectangle;fontStyle=1;top=0;left=0;bottom=0;html=1;fillColor=none;align=left;verticalAlign=middle;spacingLeft=4;spacingRight=4;whiteSpace=wrap;overflow=hidden;rotatable=0;points=[];portConstraint=eastwest;part=1;labelBackgroundColor=none;strokeColor=#006658;fontColor=#5C5C5C;rounded=1;" parent="EWD9UEPrraGSUW-WTAQi-292" connectable="0" vertex="1">
      <mxGeometry width="56" height="30" as="geometry" />
    </mxCell>
    <mxCell id="EWD9UEPrraGSUW-WTAQi-294" value="row 2" style="shape=partialRectangle;top=0;left=0;right=0;bottom=1;html=1;align=left;verticalAlign=middle;fillColor=none;spacingLeft=60;spacingRight=4;whiteSpace=wrap;overflow=hidden;rotatable=0;points=[[0,0.5],[1,0.5]];portConstraint=eastwest;dropTarget=0;fontStyle=5;labelBackgroundColor=none;strokeColor=#006658;fontColor=#5C5C5C;rounded=1;" parent="EWD9UEPrraGSUW-WTAQi-125" vertex="1">
      <mxGeometry y="116" width="170" as="geometry" />
    </mxCell>
    <mxCell id="EWD9UEPrraGSUW-WTAQi-295" value="PK,FK2" style="shape=partialRectangle;fontStyle=1;top=0;left=0;bottom=0;html=1;fillColor=none;align=left;verticalAlign=middle;spacingLeft=4;spacingRight=4;whiteSpace=wrap;overflow=hidden;rotatable=0;points=[];portConstraint=eastwest;part=1;labelBackgroundColor=none;strokeColor=#006658;fontColor=#5C5C5C;rounded=1;" parent="EWD9UEPrraGSUW-WTAQi-294" connectable="0" vertex="1">
      <mxGeometry width="56" as="geometry" />
    </mxCell>
    <mxCell id="EWD9UEPrraGSUW-WTAQi-296" value="updated_at" style="shape=partialRectangle;top=0;left=0;right=0;bottom=1;html=1;align=left;verticalAlign=middle;fillColor=none;spacingLeft=60;spacingRight=4;whiteSpace=wrap;overflow=hidden;rotatable=0;points=[[0,0.5],[1,0.5]];portConstraint=eastwest;dropTarget=0;fontStyle=5;labelBackgroundColor=none;strokeColor=#006658;fontColor=#5C5C5C;rounded=1;" parent="EWD9UEPrraGSUW-WTAQi-125" vertex="1">
      <mxGeometry y="116" width="170" height="30" as="geometry" />
    </mxCell>
    <mxCell id="EWD9UEPrraGSUW-WTAQi-297" value="" style="shape=partialRectangle;fontStyle=1;top=0;left=0;bottom=0;html=1;fillColor=none;align=left;verticalAlign=middle;spacingLeft=4;spacingRight=4;whiteSpace=wrap;overflow=hidden;rotatable=0;points=[];portConstraint=eastwest;part=1;labelBackgroundColor=none;strokeColor=#006658;fontColor=#5C5C5C;rounded=1;" parent="EWD9UEPrraGSUW-WTAQi-296" connectable="0" vertex="1">
      <mxGeometry width="56" height="30" as="geometry" />
    </mxCell>
    <mxCell id="EWD9UEPrraGSUW-WTAQi-298" value="task_id" style="shape=partialRectangle;top=0;left=0;right=0;bottom=1;html=1;align=left;verticalAlign=middle;fillColor=none;spacingLeft=60;spacingRight=4;whiteSpace=wrap;overflow=hidden;rotatable=0;points=[[0,0.5],[1,0.5]];portConstraint=eastwest;dropTarget=0;fontStyle=5;labelBackgroundColor=none;strokeColor=#006658;fontColor=#5C5C5C;rounded=1;" parent="EWD9UEPrraGSUW-WTAQi-125" vertex="1">
      <mxGeometry y="146" width="170" height="30" as="geometry" />
    </mxCell>
    <mxCell id="EWD9UEPrraGSUW-WTAQi-299" value="FK" style="shape=partialRectangle;fontStyle=1;top=0;left=0;bottom=0;html=1;fillColor=none;align=left;verticalAlign=middle;spacingLeft=4;spacingRight=4;whiteSpace=wrap;overflow=hidden;rotatable=0;points=[];portConstraint=eastwest;part=1;labelBackgroundColor=none;strokeColor=#006658;fontColor=#5C5C5C;rounded=1;" parent="EWD9UEPrraGSUW-WTAQi-298" connectable="0" vertex="1">
      <mxGeometry width="59.5" height="30" as="geometry" />
    </mxCell>
    <mxCell id="EWD9UEPrraGSUW-WTAQi-139" value="" style="edgeStyle=entityRelationEdgeStyle;html=1;endArrow=ERzeroToOne;startArrow=ERmandOne;labelBackgroundColor=none;fontFamily=Verdana;fontSize=14;exitX=1;exitY=0.5;strokeColor=#006658;fontColor=default;" parent="1" edge="1">
      <mxGeometry width="100" height="100" relative="1" as="geometry">
        <mxPoint x="190" y="451" as="sourcePoint" />
        <mxPoint x="290" y="420" as="targetPoint" />
      </mxGeometry>
    </mxCell>
    <mxCell id="EWD9UEPrraGSUW-WTAQi-140" value="" style="edgeStyle=entityRelationEdgeStyle;html=1;endArrow=ERzeroToOne;startArrow=ERmandOne;labelBackgroundColor=none;fontFamily=Verdana;fontSize=14;exitX=1.026;exitY=-0.063;exitDx=0;exitDy=0;exitPerimeter=0;strokeColor=#006658;fontColor=default;entryX=-0.033;entryY=0.633;entryDx=0;entryDy=0;entryPerimeter=0;" parent="1" target="EWD9UEPrraGSUW-WTAQi-313" edge="1">
      <mxGeometry width="100" height="100" relative="1" as="geometry">
        <mxPoint x="454.15999999999997" y="612.3620000000001" as="sourcePoint" />
        <mxPoint x="580" y="384" as="targetPoint" />
      </mxGeometry>
    </mxCell>
    <mxCell id="EWD9UEPrraGSUW-WTAQi-141" value="" style="edgeStyle=orthogonalEdgeStyle;html=1;endArrow=ERmany;startArrow=ERmany;labelBackgroundColor=none;fontFamily=Verdana;fontSize=14;entryX=1;entryY=0.5;exitX=0;exitY=0.5;exitDx=0;exitDy=0;strokeColor=#006658;fontColor=default;" parent="1" source="EWD9UEPrraGSUW-WTAQi-303" edge="1">
      <mxGeometry width="100" height="100" relative="1" as="geometry">
        <mxPoint x="580" y="253" as="sourcePoint" />
        <mxPoint x="460" y="145" as="targetPoint" />
        <Array as="points">
          <mxPoint x="580" y="231" />
          <mxPoint x="580" y="230" />
          <mxPoint x="550" y="230" />
          <mxPoint x="550" y="190" />
          <mxPoint x="500" y="190" />
          <mxPoint x="500" y="142" />
          <mxPoint x="460" y="142" />
        </Array>
      </mxGeometry>
    </mxCell>
    <mxCell id="EWD9UEPrraGSUW-WTAQi-142" value="" style="edgeStyle=entityRelationEdgeStyle;html=1;endArrow=ERzeroToOne;startArrow=ERmandOne;labelBackgroundColor=none;fontFamily=Verdana;fontSize=14;exitX=1.026;exitY=-0.063;exitDx=0;exitDy=0;exitPerimeter=0;strokeColor=#006658;fontColor=default;entryX=-0.018;entryY=-0.056;entryDx=0;entryDy=0;entryPerimeter=0;" parent="1" target="EWD9UEPrraGSUW-WTAQi-296" edge="1">
      <mxGeometry width="100" height="100" relative="1" as="geometry">
        <mxPoint x="454" y="483" as="sourcePoint" />
        <mxPoint x="590" y="168.00000000000023" as="targetPoint" />
        <Array as="points">
          <mxPoint x="580" y="180" />
          <mxPoint x="580" y="140" />
        </Array>
      </mxGeometry>
    </mxCell>
    <mxCell id="EWD9UEPrraGSUW-WTAQi-143" value="" style="edgeStyle=entityRelationEdgeStyle;html=1;endArrow=ERzeroToOne;startArrow=ERmandOne;labelBackgroundColor=none;fontFamily=Verdana;fontSize=14;exitX=1.026;exitY=-0.063;exitDx=0;exitDy=0;exitPerimeter=0;entryX=-0.01;entryY=0.833;entryDx=0;entryDy=0;entryPerimeter=0;strokeColor=#006658;fontColor=default;" parent="1" target="EWD9UEPrraGSUW-WTAQi-311" edge="1">
      <mxGeometry width="100" height="100" relative="1" as="geometry">
        <mxPoint x="464" y="493" as="sourcePoint" />
        <mxPoint x="571.8400000000001" y="365.76" as="targetPoint" />
      </mxGeometry>
    </mxCell>
    <mxCell id="EWD9UEPrraGSUW-WTAQi-144" value="" style="edgeStyle=orthogonalEdgeStyle;html=1;endArrow=ERmany;startArrow=ERmany;labelBackgroundColor=none;fontFamily=Verdana;fontSize=14;entryX=1;entryY=0.5;exitX=0.014;exitY=-0.011;exitDx=0;exitDy=0;strokeColor=#006658;fontColor=default;exitPerimeter=0;" parent="1" edge="1">
      <mxGeometry width="100" height="100" relative="1" as="geometry">
        <mxPoint x="597.3799999999999" y="305.6700000000001" as="sourcePoint" />
        <mxPoint x="465" y="202" as="targetPoint" />
        <Array as="points">
          <mxPoint x="597" y="310" />
          <mxPoint x="555" y="310" />
          <mxPoint x="555" y="296" />
          <mxPoint x="505" y="296" />
          <mxPoint x="505" y="199" />
          <mxPoint x="465" y="199" />
        </Array>
      </mxGeometry>
    </mxCell>
    <mxCell id="EWD9UEPrraGSUW-WTAQi-145" value="" style="edgeStyle=orthogonalEdgeStyle;html=1;endArrow=ERmany;startArrow=ERmany;labelBackgroundColor=none;fontFamily=Verdana;fontSize=14;entryX=1;entryY=0.5;exitX=0.01;exitY=0.767;exitDx=0;exitDy=0;exitPerimeter=0;strokeColor=#006658;fontColor=default;" parent="1" source="EWD9UEPrraGSUW-WTAQi-316" edge="1">
      <mxGeometry width="100" height="100" relative="1" as="geometry">
        <mxPoint x="574.72" y="470.23" as="sourcePoint" />
        <mxPoint x="450" y="412.94" as="targetPoint" />
        <Array as="points">
          <mxPoint x="600" y="470" />
          <mxPoint x="600" y="481" />
          <mxPoint x="550" y="481" />
          <mxPoint x="550" y="460" />
          <mxPoint x="490" y="460" />
          <mxPoint x="490" y="410" />
          <mxPoint x="450" y="410" />
        </Array>
      </mxGeometry>
    </mxCell>
    <mxCell id="EWD9UEPrraGSUW-WTAQi-152" value="" style="edgeStyle=entityRelationEdgeStyle;startArrow=none;endArrow=none;segment=10;curved=1;sourcePerimeterSpacing=0;targetPerimeterSpacing=0;rounded=1;fontSize=12;startSize=8;endSize=8;entryX=-0.044;entryY=-0.102;entryDx=0;entryDy=0;entryPerimeter=0;labelBackgroundColor=none;strokeColor=#006658;fontColor=default;exitX=1.042;exitY=0.551;exitDx=0;exitDy=0;exitPerimeter=0;" parent="1" source="EWD9UEPrraGSUW-WTAQi-280" edge="1">
      <mxGeometry relative="1" as="geometry">
        <mxPoint x="430" y="720" as="sourcePoint" />
        <mxPoint x="712.9599999999998" y="792.94" as="targetPoint" />
        <Array as="points">
          <mxPoint x="460" y="730" />
        </Array>
      </mxGeometry>
    </mxCell>
    <mxCell id="EWD9UEPrraGSUW-WTAQi-174" value="" style="edgeStyle=entityRelationEdgeStyle;startArrow=none;endArrow=none;segment=10;curved=1;sourcePerimeterSpacing=0;targetPerimeterSpacing=0;rounded=1;fontSize=12;startSize=8;endSize=8;exitX=1;exitY=0;exitDx=0;exitDy=0;labelBackgroundColor=none;strokeColor=#006658;fontColor=default;entryX=-0.01;entryY=0.056;entryDx=0;entryDy=0;entryPerimeter=0;" parent="1" source="EWD9UEPrraGSUW-WTAQi-88" edge="1">
      <mxGeometry relative="1" as="geometry">
        <mxPoint x="530" y="120" as="sourcePoint" />
        <mxPoint x="588.4000000000001" y="-152.31999999999994" as="targetPoint" />
      </mxGeometry>
    </mxCell>
    <mxCell id="EWD9UEPrraGSUW-WTAQi-181" value="TAGS" style="swimlane;html=1;fontStyle=0;childLayout=stackLayout;horizontal=1;startSize=26;fillColor=#e1d5e7;horizontalStack=0;resizeParent=1;resizeLast=0;collapsible=1;marginBottom=0;swimlaneFillColor=#ffffff;align=center;rounded=1;shadow=0;comic=0;labelBackgroundColor=none;strokeWidth=1;fontFamily=Verdana;fontSize=14;strokeColor=#9673a6;" parent="1" vertex="1">
      <mxGeometry x="720" y="710" width="160" height="90" as="geometry" />
    </mxCell>
    <mxCell id="EWD9UEPrraGSUW-WTAQi-182" value="ID" style="shape=partialRectangle;top=0;left=0;right=0;bottom=0;html=1;align=left;verticalAlign=middle;fillColor=#e1d5e7;spacingLeft=60;spacingRight=4;whiteSpace=wrap;overflow=hidden;rotatable=0;points=[[0,0.5],[1,0.5]];portConstraint=eastwest;dropTarget=0;fontStyle=5;labelBackgroundColor=none;strokeColor=#9673a6;rounded=1;" parent="EWD9UEPrraGSUW-WTAQi-181" vertex="1">
      <mxGeometry y="26" width="160" height="30" as="geometry" />
    </mxCell>
    <mxCell id="EWD9UEPrraGSUW-WTAQi-183" value="PK" style="shape=partialRectangle;fontStyle=1;top=0;left=0;bottom=0;html=1;fillColor=#e1d5e7;align=left;verticalAlign=middle;spacingLeft=4;spacingRight=4;whiteSpace=wrap;overflow=hidden;rotatable=0;points=[];portConstraint=eastwest;part=1;labelBackgroundColor=none;strokeColor=#9673a6;rounded=1;" parent="EWD9UEPrraGSUW-WTAQi-182" connectable="0" vertex="1">
      <mxGeometry width="56" height="30" as="geometry" />
    </mxCell>
    <mxCell id="EWD9UEPrraGSUW-WTAQi-188" value="name" style="shape=partialRectangle;top=0;left=0;right=0;bottom=1;html=1;align=left;verticalAlign=middle;fillColor=#e1d5e7;spacingLeft=60;spacingRight=4;whiteSpace=wrap;overflow=hidden;rotatable=0;points=[[0,0.5],[1,0.5]];portConstraint=eastwest;dropTarget=0;fontStyle=5;labelBackgroundColor=none;strokeColor=#9673a6;rounded=1;" parent="EWD9UEPrraGSUW-WTAQi-181" vertex="1">
      <mxGeometry y="56" width="160" height="30" as="geometry" />
    </mxCell>
    <mxCell id="EWD9UEPrraGSUW-WTAQi-189" value="" style="shape=partialRectangle;fontStyle=1;top=0;left=0;bottom=0;html=1;fillColor=#e1d5e7;align=left;verticalAlign=middle;spacingLeft=4;spacingRight=4;whiteSpace=wrap;overflow=hidden;rotatable=0;points=[];portConstraint=eastwest;part=1;labelBackgroundColor=none;strokeColor=#9673a6;rounded=1;" parent="EWD9UEPrraGSUW-WTAQi-188" connectable="0" vertex="1">
      <mxGeometry width="56" height="30" as="geometry" />
    </mxCell>
    <mxCell id="EWD9UEPrraGSUW-WTAQi-199" value="Branch" style="whiteSpace=wrap;html=1;shape=partialRectangle;top=0;left=0;bottom=1;right=0;points=[[0,1],[1,1]];fillColor=#e1d5e7;align=center;verticalAlign=bottom;routingCenterY=0.5;snapToPoint=1;recursiveResize=0;autosize=1;treeFolding=1;treeMoving=1;newEdgeStyle={&quot;edgeStyle&quot;:&quot;entityRelationEdgeStyle&quot;,&quot;startArrow&quot;:&quot;none&quot;,&quot;endArrow&quot;:&quot;none&quot;,&quot;segment&quot;:10,&quot;curved&quot;:1,&quot;sourcePerimeterSpacing&quot;:0,&quot;targetPerimeterSpacing&quot;:0};labelBackgroundColor=none;strokeColor=#9673a6;rounded=1;" parent="1" vertex="1">
      <mxGeometry x="830" y="660" width="90" height="30" as="geometry" />
    </mxCell>
    <mxCell id="EWD9UEPrraGSUW-WTAQi-200" value="" style="edgeStyle=entityRelationEdgeStyle;startArrow=none;endArrow=none;segment=10;curved=1;sourcePerimeterSpacing=0;targetPerimeterSpacing=0;rounded=1;fontSize=12;startSize=8;endSize=8;labelBackgroundColor=none;strokeColor=#9673a6;fontColor=default;fillColor=#e1d5e7;" parent="1" target="EWD9UEPrraGSUW-WTAQi-199" edge="1">
      <mxGeometry relative="1" as="geometry">
        <mxPoint x="790" y="710" as="sourcePoint" />
      </mxGeometry>
    </mxCell>
    <mxCell id="EWD9UEPrraGSUW-WTAQi-203" value="" style="edgeStyle=entityRelationEdgeStyle;curved=1;rounded=1;orthogonalLoop=1;jettySize=auto;html=1;startArrow=none;endArrow=none;segment=10;sourcePerimeterSpacing=0;targetPerimeterSpacing=0;fontSize=12;startSize=8;endSize=8;labelBackgroundColor=none;strokeColor=#9673a6;fontColor=default;entryX=0.375;entryY=1.189;entryDx=0;entryDy=0;entryPerimeter=0;fillColor=#e1d5e7;" parent="1" source="EWD9UEPrraGSUW-WTAQi-201" target="EWD9UEPrraGSUW-WTAQi-338" edge="1">
      <mxGeometry relative="1" as="geometry">
        <mxPoint x="1044.27" y="880.5800000000002" as="targetPoint" />
        <Array as="points">
          <mxPoint x="1030" y="950" />
          <mxPoint x="1020" y="950" />
          <mxPoint x="1020" y="870" />
          <mxPoint x="1030" y="920" />
        </Array>
      </mxGeometry>
    </mxCell>
    <mxCell id="EWD9UEPrraGSUW-WTAQi-201" value="Branch" style="whiteSpace=wrap;html=1;shape=partialRectangle;top=0;left=0;bottom=1;right=0;points=[[0,1],[1,1]];fillColor=#e1d5e7;align=center;verticalAlign=bottom;routingCenterY=0.5;snapToPoint=1;recursiveResize=0;autosize=1;treeFolding=1;treeMoving=1;newEdgeStyle={&quot;edgeStyle&quot;:&quot;entityRelationEdgeStyle&quot;,&quot;startArrow&quot;:&quot;none&quot;,&quot;endArrow&quot;:&quot;none&quot;,&quot;segment&quot;:10,&quot;curved&quot;:1,&quot;sourcePerimeterSpacing&quot;:0,&quot;targetPerimeterSpacing&quot;:0};labelBackgroundColor=none;strokeColor=#9673a6;rounded=1;" parent="1" vertex="1">
      <mxGeometry x="880" y="863" width="80" height="40" as="geometry" />
    </mxCell>
    <mxCell id="EWD9UEPrraGSUW-WTAQi-202" value="" style="edgeStyle=entityRelationEdgeStyle;startArrow=none;endArrow=none;segment=10;curved=1;sourcePerimeterSpacing=0;targetPerimeterSpacing=0;rounded=1;fontSize=12;startSize=8;endSize=8;labelBackgroundColor=none;strokeColor=#9673a6;fontColor=default;exitX=0.548;exitY=1.189;exitDx=0;exitDy=0;exitPerimeter=0;fillColor=#e1d5e7;" parent="1" source="EWD9UEPrraGSUW-WTAQi-188" edge="1">
      <mxGeometry relative="1" as="geometry">
        <mxPoint x="815" y="853" as="sourcePoint" />
        <mxPoint x="880" y="903" as="targetPoint" />
      </mxGeometry>
    </mxCell>
    <mxCell id="EWD9UEPrraGSUW-WTAQi-353" value="" style="edgeStyle=elbowEdgeStyle;rounded=0;orthogonalLoop=1;jettySize=auto;html=1;entryX=0.5;entryY=0;entryDx=0;entryDy=0;" parent="1" source="EWD9UEPrraGSUW-WTAQi-356" target="EWD9UEPrraGSUW-WTAQi-345" edge="1">
      <mxGeometry relative="1" as="geometry">
        <mxPoint x="670" y="-180" as="sourcePoint" />
        <Array as="points">
          <mxPoint x="876" y="-220" />
        </Array>
      </mxGeometry>
    </mxCell>
    <mxCell id="EWD9UEPrraGSUW-WTAQi-218" value="" style="edgeStyle=isometricEdgeStyle;sourcePerimeterSpacing=0;targetPerimeterSpacing=0;startArrow=none;endArrow=none;rounded=1;fontSize=12;startSize=8;endSize=8;labelBackgroundColor=none;strokeColor=#006658;fontColor=default;exitX=1.01;exitY=1.038;exitDx=0;exitDy=0;exitPerimeter=0;entryX=-0.051;entryY=0.076;entryDx=0;entryDy=0;entryPerimeter=0;" parent="1" source="EWD9UEPrraGSUW-WTAQi-359" target="EWD9UEPrraGSUW-WTAQi-343" edge="1">
      <mxGeometry relative="1" as="geometry">
        <mxPoint x="759.9200000000001" y="-108.57999999999993" as="sourcePoint" />
        <mxPoint x="1070" y="60" as="targetPoint" />
      </mxGeometry>
    </mxCell>
    <mxCell id="EWD9UEPrraGSUW-WTAQi-220" value="&lt;h1&gt;&lt;i&gt;&lt;font color=&quot;#ff9999&quot; face=&quot;Times New Roman&quot;&gt;NOTE:&lt;br&gt;&lt;/font&gt;&lt;font color=&quot;#ff9999&quot; face=&quot;Times New Roman&quot;&gt;PK = Primary key&lt;br&gt;&lt;/font&gt;&lt;font color=&quot;#ff9999&quot; face=&quot;Times New Roman&quot;&gt;FK = Foreign Key&lt;/font&gt;&lt;/i&gt;&lt;/h1&gt;" style="text;strokeColor=none;fillColor=none;html=1;align=center;verticalAlign=middle;whiteSpace=wrap;rounded=1;fontSize=16;labelBackgroundColor=none;fontColor=#5C5C5C;" parent="1" vertex="1">
      <mxGeometry x="630" y="980" width="350" height="120" as="geometry" />
    </mxCell>
    <mxCell id="EWD9UEPrraGSUW-WTAQi-252" value="TASK" style="swimlane;html=1;fontStyle=0;childLayout=stackLayout;horizontal=1;startSize=26;fillColor=#d5e8d4;horizontalStack=0;resizeParent=1;resizeLast=0;collapsible=1;marginBottom=0;swimlaneFillColor=#ffffff;align=center;rounded=1;shadow=0;comic=0;labelBackgroundColor=none;strokeWidth=1;fontFamily=Verdana;fontSize=14;strokeColor=#82b366;" parent="1" vertex="1">
      <mxGeometry x="294" y="320" width="160" height="252" as="geometry" />
    </mxCell>
    <mxCell id="EWD9UEPrraGSUW-WTAQi-253" value="id&lt;span style=&quot;white-space: pre;&quot;&gt;&#x9;&lt;/span&gt;" style="shape=partialRectangle;top=0;left=0;right=0;bottom=1;html=1;align=left;verticalAlign=middle;fillColor=none;spacingLeft=34;spacingRight=4;whiteSpace=wrap;overflow=hidden;rotatable=0;points=[[0,0.5],[1,0.5]];portConstraint=eastwest;dropTarget=0;fontStyle=5;labelBackgroundColor=none;strokeColor=#006658;fontColor=#5C5C5C;rounded=1;" parent="EWD9UEPrraGSUW-WTAQi-252" vertex="1">
      <mxGeometry y="26" width="160" height="18" as="geometry" />
    </mxCell>
    <mxCell id="EWD9UEPrraGSUW-WTAQi-254" value="PK" style="shape=partialRectangle;top=0;left=0;bottom=0;html=1;fillColor=none;align=left;verticalAlign=middle;spacingLeft=4;spacingRight=4;whiteSpace=wrap;overflow=hidden;rotatable=0;points=[];portConstraint=eastwest;part=1;labelBackgroundColor=none;strokeColor=#006658;fontColor=#5C5C5C;rounded=1;" parent="EWD9UEPrraGSUW-WTAQi-253" connectable="0" vertex="1">
      <mxGeometry width="30" height="18" as="geometry" />
    </mxCell>
    <mxCell id="EWD9UEPrraGSUW-WTAQi-255" value="title" style="shape=partialRectangle;top=0;left=0;right=0;bottom=0;html=1;align=left;verticalAlign=top;fillColor=none;spacingLeft=34;spacingRight=4;whiteSpace=wrap;overflow=hidden;rotatable=0;points=[[0,0.5],[1,0.5]];portConstraint=eastwest;dropTarget=0;labelBackgroundColor=none;strokeColor=#006658;fontColor=#5C5C5C;rounded=1;" parent="EWD9UEPrraGSUW-WTAQi-252" vertex="1">
      <mxGeometry y="44" width="160" height="26" as="geometry" />
    </mxCell>
    <mxCell id="EWD9UEPrraGSUW-WTAQi-256" value="" style="shape=partialRectangle;top=0;left=0;bottom=0;html=1;fillColor=none;align=left;verticalAlign=top;spacingLeft=4;spacingRight=4;whiteSpace=wrap;overflow=hidden;rotatable=0;points=[];portConstraint=eastwest;part=1;labelBackgroundColor=none;strokeColor=#006658;fontColor=#5C5C5C;rounded=1;" parent="EWD9UEPrraGSUW-WTAQi-255" connectable="0" vertex="1">
      <mxGeometry width="30" height="26" as="geometry" />
    </mxCell>
    <mxCell id="EWD9UEPrraGSUW-WTAQi-257" value="description" style="shape=partialRectangle;top=0;left=0;right=0;bottom=0;html=1;align=left;verticalAlign=top;fillColor=none;spacingLeft=34;spacingRight=4;whiteSpace=wrap;overflow=hidden;rotatable=0;points=[[0,0.5],[1,0.5]];portConstraint=eastwest;dropTarget=0;labelBackgroundColor=none;strokeColor=#006658;fontColor=#5C5C5C;rounded=1;" parent="EWD9UEPrraGSUW-WTAQi-252" vertex="1">
      <mxGeometry y="70" width="160" height="26" as="geometry" />
    </mxCell>
    <mxCell id="EWD9UEPrraGSUW-WTAQi-258" value="" style="shape=partialRectangle;top=0;left=0;bottom=0;html=1;fillColor=none;align=left;verticalAlign=top;spacingLeft=4;spacingRight=4;whiteSpace=wrap;overflow=hidden;rotatable=0;points=[];portConstraint=eastwest;part=1;labelBackgroundColor=none;strokeColor=#006658;fontColor=#5C5C5C;rounded=1;" parent="EWD9UEPrraGSUW-WTAQi-257" connectable="0" vertex="1">
      <mxGeometry width="30" height="26" as="geometry" />
    </mxCell>
    <mxCell id="EWD9UEPrraGSUW-WTAQi-259" value="created_at" style="shape=partialRectangle;top=0;left=0;right=0;bottom=0;html=1;align=left;verticalAlign=top;fillColor=none;spacingLeft=34;spacingRight=4;whiteSpace=wrap;overflow=hidden;rotatable=0;points=[[0,0.5],[1,0.5]];portConstraint=eastwest;dropTarget=0;labelBackgroundColor=none;strokeColor=#006658;fontColor=#5C5C5C;rounded=1;" parent="EWD9UEPrraGSUW-WTAQi-252" vertex="1">
      <mxGeometry y="96" width="160" height="26" as="geometry" />
    </mxCell>
    <mxCell id="EWD9UEPrraGSUW-WTAQi-260" value="" style="shape=partialRectangle;top=0;left=0;bottom=0;html=1;fillColor=none;align=left;verticalAlign=top;spacingLeft=4;spacingRight=4;whiteSpace=wrap;overflow=hidden;rotatable=0;points=[];portConstraint=eastwest;part=1;labelBackgroundColor=none;strokeColor=#006658;fontColor=#5C5C5C;rounded=1;" parent="EWD9UEPrraGSUW-WTAQi-259" connectable="0" vertex="1">
      <mxGeometry width="30" height="26" as="geometry" />
    </mxCell>
    <mxCell id="EWD9UEPrraGSUW-WTAQi-261" value="updated_at" style="shape=partialRectangle;top=0;left=0;right=0;bottom=0;html=1;align=left;verticalAlign=top;fillColor=none;spacingLeft=34;spacingRight=4;whiteSpace=wrap;overflow=hidden;rotatable=0;points=[[0,0.5],[1,0.5]];portConstraint=eastwest;dropTarget=0;labelBackgroundColor=none;strokeColor=#006658;fontColor=#5C5C5C;rounded=1;" parent="EWD9UEPrraGSUW-WTAQi-252" vertex="1">
      <mxGeometry y="122" width="160" height="26" as="geometry" />
    </mxCell>
    <mxCell id="EWD9UEPrraGSUW-WTAQi-262" value="" style="shape=partialRectangle;top=0;left=0;bottom=0;html=1;fillColor=none;align=left;verticalAlign=top;spacingLeft=4;spacingRight=4;whiteSpace=wrap;overflow=hidden;rotatable=0;points=[];portConstraint=eastwest;part=1;labelBackgroundColor=none;strokeColor=#006658;fontColor=#5C5C5C;rounded=1;" parent="EWD9UEPrraGSUW-WTAQi-261" connectable="0" vertex="1">
      <mxGeometry width="30" height="26" as="geometry" />
    </mxCell>
    <mxCell id="EWD9UEPrraGSUW-WTAQi-263" value="due_at" style="shape=partialRectangle;top=0;left=0;right=0;bottom=0;html=1;align=left;verticalAlign=top;fillColor=none;spacingLeft=34;spacingRight=4;whiteSpace=wrap;overflow=hidden;rotatable=0;points=[[0,0.5],[1,0.5]];portConstraint=eastwest;dropTarget=0;labelBackgroundColor=none;strokeColor=#006658;fontColor=#5C5C5C;rounded=1;" parent="EWD9UEPrraGSUW-WTAQi-252" vertex="1">
      <mxGeometry y="148" width="160" height="26" as="geometry" />
    </mxCell>
    <mxCell id="EWD9UEPrraGSUW-WTAQi-264" value="" style="shape=partialRectangle;top=0;left=0;bottom=0;html=1;fillColor=none;align=left;verticalAlign=top;spacingLeft=4;spacingRight=4;whiteSpace=wrap;overflow=hidden;rotatable=0;points=[];portConstraint=eastwest;part=1;labelBackgroundColor=none;strokeColor=#006658;fontColor=#5C5C5C;rounded=1;" parent="EWD9UEPrraGSUW-WTAQi-263" connectable="0" vertex="1">
      <mxGeometry width="30" height="26" as="geometry" />
    </mxCell>
    <mxCell id="EWD9UEPrraGSUW-WTAQi-265" value="status" style="shape=partialRectangle;top=0;left=0;right=0;bottom=0;html=1;align=left;verticalAlign=top;fillColor=none;spacingLeft=34;spacingRight=4;whiteSpace=wrap;overflow=hidden;rotatable=0;points=[[0,0.5],[1,0.5]];portConstraint=eastwest;dropTarget=0;labelBackgroundColor=none;strokeColor=#006658;fontColor=#5C5C5C;rounded=1;" parent="EWD9UEPrraGSUW-WTAQi-252" vertex="1">
      <mxGeometry y="174" width="160" height="26" as="geometry" />
    </mxCell>
    <mxCell id="EWD9UEPrraGSUW-WTAQi-266" value="" style="shape=partialRectangle;top=0;left=0;bottom=0;html=1;fillColor=none;align=left;verticalAlign=top;spacingLeft=4;spacingRight=4;whiteSpace=wrap;overflow=hidden;rotatable=0;points=[];portConstraint=eastwest;part=1;labelBackgroundColor=none;strokeColor=#006658;fontColor=#5C5C5C;rounded=1;" parent="EWD9UEPrraGSUW-WTAQi-265" connectable="0" vertex="1">
      <mxGeometry width="30" height="26" as="geometry" />
    </mxCell>
    <mxCell id="EWD9UEPrraGSUW-WTAQi-267" value="priority" style="shape=partialRectangle;top=0;left=0;right=0;bottom=0;html=1;align=left;verticalAlign=top;fillColor=none;spacingLeft=34;spacingRight=4;whiteSpace=wrap;overflow=hidden;rotatable=0;points=[[0,0.5],[1,0.5]];portConstraint=eastwest;dropTarget=0;labelBackgroundColor=none;strokeColor=#006658;fontColor=#5C5C5C;rounded=1;" parent="EWD9UEPrraGSUW-WTAQi-252" vertex="1">
      <mxGeometry y="200" width="160" height="26" as="geometry" />
    </mxCell>
    <mxCell id="EWD9UEPrraGSUW-WTAQi-268" value="" style="shape=partialRectangle;top=0;left=0;bottom=0;html=1;fillColor=none;align=left;verticalAlign=top;spacingLeft=4;spacingRight=4;whiteSpace=wrap;overflow=hidden;rotatable=0;points=[];portConstraint=eastwest;part=1;labelBackgroundColor=none;strokeColor=#006658;fontColor=#5C5C5C;rounded=1;" parent="EWD9UEPrraGSUW-WTAQi-267" connectable="0" vertex="1">
      <mxGeometry width="30" height="26" as="geometry" />
    </mxCell>
    <mxCell id="EWD9UEPrraGSUW-WTAQi-269" value="user_id" style="shape=partialRectangle;top=0;left=0;right=0;bottom=0;html=1;align=left;verticalAlign=top;fillColor=none;spacingLeft=34;spacingRight=4;whiteSpace=wrap;overflow=hidden;rotatable=0;points=[[0,0.5],[1,0.5]];portConstraint=eastwest;dropTarget=0;labelBackgroundColor=none;strokeColor=#006658;fontColor=#5C5C5C;rounded=1;" parent="EWD9UEPrraGSUW-WTAQi-252" vertex="1">
      <mxGeometry y="226" width="160" height="26" as="geometry" />
    </mxCell>
    <mxCell id="EWD9UEPrraGSUW-WTAQi-270" value="FK" style="shape=partialRectangle;top=0;left=0;bottom=0;html=1;fillColor=none;align=left;verticalAlign=top;spacingLeft=4;spacingRight=4;whiteSpace=wrap;overflow=hidden;rotatable=0;points=[];portConstraint=eastwest;part=1;labelBackgroundColor=none;strokeColor=#006658;fontColor=#5C5C5C;rounded=1;" parent="EWD9UEPrraGSUW-WTAQi-269" connectable="0" vertex="1">
      <mxGeometry width="30" height="26" as="geometry" />
    </mxCell>
    <mxCell id="EWD9UEPrraGSUW-WTAQi-271" value="TASK" style="swimlane;html=1;fontStyle=0;childLayout=stackLayout;horizontal=1;startSize=26;fillColor=#d5e8d4;horizontalStack=0;resizeParent=1;resizeLast=0;collapsible=1;marginBottom=0;swimlaneFillColor=#ffffff;align=center;rounded=1;shadow=0;comic=0;labelBackgroundColor=none;strokeWidth=1;fontFamily=Verdana;fontSize=14;strokeColor=#82b366;" parent="1" vertex="1">
      <mxGeometry x="299" y="590" width="160" height="278" as="geometry" />
    </mxCell>
    <mxCell id="EWD9UEPrraGSUW-WTAQi-272" value="id&lt;span style=&quot;white-space: pre;&quot;&gt;&#x9;&lt;/span&gt;" style="shape=partialRectangle;top=0;left=0;right=0;bottom=1;html=1;align=left;verticalAlign=middle;fillColor=#d5e8d4;spacingLeft=34;spacingRight=4;whiteSpace=wrap;overflow=hidden;rotatable=0;points=[[0,0.5],[1,0.5]];portConstraint=eastwest;dropTarget=0;fontStyle=5;labelBackgroundColor=none;strokeColor=#82b366;rounded=1;" parent="EWD9UEPrraGSUW-WTAQi-271" vertex="1">
      <mxGeometry y="26" width="160" height="18" as="geometry" />
    </mxCell>
    <mxCell id="EWD9UEPrraGSUW-WTAQi-273" value="PK" style="shape=partialRectangle;top=0;left=0;bottom=0;html=1;fillColor=none;align=left;verticalAlign=middle;spacingLeft=4;spacingRight=4;whiteSpace=wrap;overflow=hidden;rotatable=0;points=[];portConstraint=eastwest;part=1;labelBackgroundColor=none;strokeColor=#006658;fontColor=#5C5C5C;rounded=1;" parent="EWD9UEPrraGSUW-WTAQi-272" connectable="0" vertex="1">
      <mxGeometry width="30" height="18" as="geometry" />
    </mxCell>
    <mxCell id="EWD9UEPrraGSUW-WTAQi-274" value="title" style="shape=partialRectangle;top=0;left=0;right=0;bottom=0;html=1;align=left;verticalAlign=top;fillColor=none;spacingLeft=34;spacingRight=4;whiteSpace=wrap;overflow=hidden;rotatable=0;points=[[0,0.5],[1,0.5]];portConstraint=eastwest;dropTarget=0;labelBackgroundColor=none;strokeColor=#006658;fontColor=#5C5C5C;rounded=1;" parent="EWD9UEPrraGSUW-WTAQi-271" vertex="1">
      <mxGeometry y="44" width="160" height="26" as="geometry" />
    </mxCell>
    <mxCell id="EWD9UEPrraGSUW-WTAQi-275" value="" style="shape=partialRectangle;top=0;left=0;bottom=0;html=1;fillColor=none;align=left;verticalAlign=top;spacingLeft=4;spacingRight=4;whiteSpace=wrap;overflow=hidden;rotatable=0;points=[];portConstraint=eastwest;part=1;labelBackgroundColor=none;strokeColor=#006658;fontColor=#5C5C5C;rounded=1;" parent="EWD9UEPrraGSUW-WTAQi-274" connectable="0" vertex="1">
      <mxGeometry width="30" height="26" as="geometry" />
    </mxCell>
    <mxCell id="EWD9UEPrraGSUW-WTAQi-276" value="description" style="shape=partialRectangle;top=0;left=0;right=0;bottom=0;html=1;align=left;verticalAlign=top;fillColor=none;spacingLeft=34;spacingRight=4;whiteSpace=wrap;overflow=hidden;rotatable=0;points=[[0,0.5],[1,0.5]];portConstraint=eastwest;dropTarget=0;labelBackgroundColor=none;strokeColor=#006658;fontColor=#5C5C5C;rounded=1;" parent="EWD9UEPrraGSUW-WTAQi-271" vertex="1">
      <mxGeometry y="70" width="160" height="26" as="geometry" />
    </mxCell>
    <mxCell id="EWD9UEPrraGSUW-WTAQi-277" value="" style="shape=partialRectangle;top=0;left=0;bottom=0;html=1;fillColor=none;align=left;verticalAlign=top;spacingLeft=4;spacingRight=4;whiteSpace=wrap;overflow=hidden;rotatable=0;points=[];portConstraint=eastwest;part=1;labelBackgroundColor=none;strokeColor=#006658;fontColor=#5C5C5C;rounded=1;" parent="EWD9UEPrraGSUW-WTAQi-276" connectable="0" vertex="1">
      <mxGeometry width="30" height="26" as="geometry" />
    </mxCell>
    <mxCell id="EWD9UEPrraGSUW-WTAQi-278" value="created_at" style="shape=partialRectangle;top=0;left=0;right=0;bottom=0;html=1;align=left;verticalAlign=top;fillColor=none;spacingLeft=34;spacingRight=4;whiteSpace=wrap;overflow=hidden;rotatable=0;points=[[0,0.5],[1,0.5]];portConstraint=eastwest;dropTarget=0;labelBackgroundColor=none;strokeColor=#006658;fontColor=#5C5C5C;rounded=1;" parent="EWD9UEPrraGSUW-WTAQi-271" vertex="1">
      <mxGeometry y="96" width="160" height="26" as="geometry" />
    </mxCell>
    <mxCell id="EWD9UEPrraGSUW-WTAQi-279" value="" style="shape=partialRectangle;top=0;left=0;bottom=0;html=1;fillColor=none;align=left;verticalAlign=top;spacingLeft=4;spacingRight=4;whiteSpace=wrap;overflow=hidden;rotatable=0;points=[];portConstraint=eastwest;part=1;labelBackgroundColor=none;strokeColor=#006658;fontColor=#5C5C5C;rounded=1;" parent="EWD9UEPrraGSUW-WTAQi-278" connectable="0" vertex="1">
      <mxGeometry width="30" height="26" as="geometry" />
    </mxCell>
    <mxCell id="EWD9UEPrraGSUW-WTAQi-280" value="updated_at" style="shape=partialRectangle;top=0;left=0;right=0;bottom=0;html=1;align=left;verticalAlign=top;fillColor=none;spacingLeft=34;spacingRight=4;whiteSpace=wrap;overflow=hidden;rotatable=0;points=[[0,0.5],[1,0.5]];portConstraint=eastwest;dropTarget=0;labelBackgroundColor=none;strokeColor=#006658;fontColor=#5C5C5C;rounded=1;" parent="EWD9UEPrraGSUW-WTAQi-271" vertex="1">
      <mxGeometry y="122" width="160" height="26" as="geometry" />
    </mxCell>
    <mxCell id="EWD9UEPrraGSUW-WTAQi-281" value="" style="shape=partialRectangle;top=0;left=0;bottom=0;html=1;fillColor=none;align=left;verticalAlign=top;spacingLeft=4;spacingRight=4;whiteSpace=wrap;overflow=hidden;rotatable=0;points=[];portConstraint=eastwest;part=1;labelBackgroundColor=none;strokeColor=#006658;fontColor=#5C5C5C;rounded=1;" parent="EWD9UEPrraGSUW-WTAQi-280" connectable="0" vertex="1">
      <mxGeometry width="30" height="26" as="geometry" />
    </mxCell>
    <mxCell id="EWD9UEPrraGSUW-WTAQi-290" value="updated_at" style="shape=partialRectangle;top=0;left=0;right=0;bottom=0;html=1;align=left;verticalAlign=top;fillColor=none;spacingLeft=34;spacingRight=4;whiteSpace=wrap;overflow=hidden;rotatable=0;points=[[0,0.5],[1,0.5]];portConstraint=eastwest;dropTarget=0;labelBackgroundColor=none;strokeColor=#006658;fontColor=#5C5C5C;rounded=1;" parent="EWD9UEPrraGSUW-WTAQi-271" vertex="1">
      <mxGeometry y="148" width="160" height="26" as="geometry" />
    </mxCell>
    <mxCell id="EWD9UEPrraGSUW-WTAQi-291" value="" style="shape=partialRectangle;top=0;left=0;bottom=0;html=1;fillColor=none;align=left;verticalAlign=top;spacingLeft=4;spacingRight=4;whiteSpace=wrap;overflow=hidden;rotatable=0;points=[];portConstraint=eastwest;part=1;labelBackgroundColor=none;strokeColor=#006658;fontColor=#5C5C5C;rounded=1;" parent="EWD9UEPrraGSUW-WTAQi-290" connectable="0" vertex="1">
      <mxGeometry width="30" height="26" as="geometry" />
    </mxCell>
    <mxCell id="EWD9UEPrraGSUW-WTAQi-282" value="due_at" style="shape=partialRectangle;top=0;left=0;right=0;bottom=0;html=1;align=left;verticalAlign=top;fillColor=none;spacingLeft=34;spacingRight=4;whiteSpace=wrap;overflow=hidden;rotatable=0;points=[[0,0.5],[1,0.5]];portConstraint=eastwest;dropTarget=0;labelBackgroundColor=none;strokeColor=#006658;fontColor=#5C5C5C;rounded=1;" parent="EWD9UEPrraGSUW-WTAQi-271" vertex="1">
      <mxGeometry y="174" width="160" height="26" as="geometry" />
    </mxCell>
    <mxCell id="EWD9UEPrraGSUW-WTAQi-283" value="" style="shape=partialRectangle;top=0;left=0;bottom=0;html=1;fillColor=none;align=left;verticalAlign=top;spacingLeft=4;spacingRight=4;whiteSpace=wrap;overflow=hidden;rotatable=0;points=[];portConstraint=eastwest;part=1;labelBackgroundColor=none;strokeColor=#006658;fontColor=#5C5C5C;rounded=1;" parent="EWD9UEPrraGSUW-WTAQi-282" connectable="0" vertex="1">
      <mxGeometry width="30" height="26" as="geometry" />
    </mxCell>
    <mxCell id="EWD9UEPrraGSUW-WTAQi-284" value="status" style="shape=partialRectangle;top=0;left=0;right=0;bottom=0;html=1;align=left;verticalAlign=top;fillColor=none;spacingLeft=34;spacingRight=4;whiteSpace=wrap;overflow=hidden;rotatable=0;points=[[0,0.5],[1,0.5]];portConstraint=eastwest;dropTarget=0;labelBackgroundColor=none;strokeColor=#006658;fontColor=#5C5C5C;rounded=1;" parent="EWD9UEPrraGSUW-WTAQi-271" vertex="1">
      <mxGeometry y="200" width="160" height="26" as="geometry" />
    </mxCell>
    <mxCell id="EWD9UEPrraGSUW-WTAQi-285" value="" style="shape=partialRectangle;top=0;left=0;bottom=0;html=1;fillColor=none;align=left;verticalAlign=top;spacingLeft=4;spacingRight=4;whiteSpace=wrap;overflow=hidden;rotatable=0;points=[];portConstraint=eastwest;part=1;labelBackgroundColor=none;strokeColor=#006658;fontColor=#5C5C5C;rounded=1;" parent="EWD9UEPrraGSUW-WTAQi-284" connectable="0" vertex="1">
      <mxGeometry width="30" height="26" as="geometry" />
    </mxCell>
    <mxCell id="EWD9UEPrraGSUW-WTAQi-286" value="priority" style="shape=partialRectangle;top=0;left=0;right=0;bottom=0;html=1;align=left;verticalAlign=top;fillColor=none;spacingLeft=34;spacingRight=4;whiteSpace=wrap;overflow=hidden;rotatable=0;points=[[0,0.5],[1,0.5]];portConstraint=eastwest;dropTarget=0;labelBackgroundColor=none;strokeColor=#006658;fontColor=#5C5C5C;rounded=1;" parent="EWD9UEPrraGSUW-WTAQi-271" vertex="1">
      <mxGeometry y="226" width="160" height="26" as="geometry" />
    </mxCell>
    <mxCell id="EWD9UEPrraGSUW-WTAQi-287" value="" style="shape=partialRectangle;top=0;left=0;bottom=0;html=1;fillColor=none;align=left;verticalAlign=top;spacingLeft=4;spacingRight=4;whiteSpace=wrap;overflow=hidden;rotatable=0;points=[];portConstraint=eastwest;part=1;labelBackgroundColor=none;strokeColor=#006658;fontColor=#5C5C5C;rounded=1;" parent="EWD9UEPrraGSUW-WTAQi-286" connectable="0" vertex="1">
      <mxGeometry width="30" height="26" as="geometry" />
    </mxCell>
    <mxCell id="EWD9UEPrraGSUW-WTAQi-288" value="user_id" style="shape=partialRectangle;top=0;left=0;right=0;bottom=0;html=1;align=left;verticalAlign=top;fillColor=none;spacingLeft=34;spacingRight=4;whiteSpace=wrap;overflow=hidden;rotatable=0;points=[[0,0.5],[1,0.5]];portConstraint=eastwest;dropTarget=0;labelBackgroundColor=none;strokeColor=#006658;fontColor=#5C5C5C;rounded=1;" parent="EWD9UEPrraGSUW-WTAQi-271" vertex="1">
      <mxGeometry y="252" width="160" height="26" as="geometry" />
    </mxCell>
    <mxCell id="EWD9UEPrraGSUW-WTAQi-289" value="FK" style="shape=partialRectangle;top=0;left=0;bottom=0;html=1;fillColor=none;align=left;verticalAlign=top;spacingLeft=4;spacingRight=4;whiteSpace=wrap;overflow=hidden;rotatable=0;points=[];portConstraint=eastwest;part=1;labelBackgroundColor=none;strokeColor=#006658;fontColor=#5C5C5C;rounded=1;" parent="EWD9UEPrraGSUW-WTAQi-288" connectable="0" vertex="1">
      <mxGeometry width="30" height="26" as="geometry" />
    </mxCell>
    <mxCell id="EWD9UEPrraGSUW-WTAQi-302" value="COMMENTS" style="swimlane;html=1;fontStyle=0;childLayout=stackLayout;horizontal=1;startSize=26;fillColor=#f8cecc;horizontalStack=0;resizeParent=1;resizeLast=0;collapsible=1;marginBottom=0;swimlaneFillColor=#ffffff;align=center;rounded=1;shadow=0;comic=0;labelBackgroundColor=none;strokeWidth=1;fontFamily=Verdana;fontSize=14;strokeColor=#B85450;" parent="1" vertex="1">
      <mxGeometry x="600" y="190" width="170" height="180" as="geometry" />
    </mxCell>
    <mxCell id="EWD9UEPrraGSUW-WTAQi-303" value="id" style="shape=partialRectangle;top=0;left=0;right=0;bottom=0;html=1;align=left;verticalAlign=middle;fillColor=none;spacingLeft=60;spacingRight=4;whiteSpace=wrap;overflow=hidden;rotatable=0;points=[[0,0.5],[1,0.5]];portConstraint=eastwest;dropTarget=0;fontStyle=5;labelBackgroundColor=none;strokeColor=#006658;fontColor=#5C5C5C;rounded=1;" parent="EWD9UEPrraGSUW-WTAQi-302" vertex="1">
      <mxGeometry y="26" width="170" height="30" as="geometry" />
    </mxCell>
    <mxCell id="EWD9UEPrraGSUW-WTAQi-304" value="PK" style="shape=partialRectangle;fontStyle=1;top=0;left=0;bottom=0;html=1;fillColor=none;align=left;verticalAlign=middle;spacingLeft=4;spacingRight=4;whiteSpace=wrap;overflow=hidden;rotatable=0;points=[];portConstraint=eastwest;part=1;labelBackgroundColor=none;strokeColor=#006658;fontColor=#5C5C5C;rounded=1;" parent="EWD9UEPrraGSUW-WTAQi-303" connectable="0" vertex="1">
      <mxGeometry width="56" height="30" as="geometry" />
    </mxCell>
    <mxCell id="EWD9UEPrraGSUW-WTAQi-305" value="content" style="shape=partialRectangle;top=0;left=0;right=0;bottom=1;html=1;align=left;verticalAlign=middle;fillColor=none;spacingLeft=60;spacingRight=4;whiteSpace=wrap;overflow=hidden;rotatable=0;points=[[0,0.5],[1,0.5]];portConstraint=eastwest;dropTarget=0;fontStyle=5;labelBackgroundColor=none;strokeColor=#006658;fontColor=#5C5C5C;rounded=1;" parent="EWD9UEPrraGSUW-WTAQi-302" vertex="1">
      <mxGeometry y="56" width="170" height="30" as="geometry" />
    </mxCell>
    <mxCell id="EWD9UEPrraGSUW-WTAQi-306" value="" style="shape=partialRectangle;fontStyle=1;top=0;left=0;bottom=0;html=1;fillColor=none;align=left;verticalAlign=middle;spacingLeft=4;spacingRight=4;whiteSpace=wrap;overflow=hidden;rotatable=0;points=[];portConstraint=eastwest;part=1;labelBackgroundColor=none;strokeColor=#006658;fontColor=#5C5C5C;rounded=1;" parent="EWD9UEPrraGSUW-WTAQi-305" connectable="0" vertex="1">
      <mxGeometry width="56" height="30" as="geometry" />
    </mxCell>
    <mxCell id="EWD9UEPrraGSUW-WTAQi-307" value="created_at" style="shape=partialRectangle;top=0;left=0;right=0;bottom=1;html=1;align=left;verticalAlign=middle;fillColor=none;spacingLeft=60;spacingRight=4;whiteSpace=wrap;overflow=hidden;rotatable=0;points=[[0,0.5],[1,0.5]];portConstraint=eastwest;dropTarget=0;fontStyle=5;labelBackgroundColor=none;strokeColor=none;fontColor=#5C5C5C;rounded=1;" parent="EWD9UEPrraGSUW-WTAQi-302" vertex="1">
      <mxGeometry y="86" width="170" height="30" as="geometry" />
    </mxCell>
    <mxCell id="EWD9UEPrraGSUW-WTAQi-308" value="" style="shape=partialRectangle;fontStyle=1;top=0;left=0;bottom=0;html=1;fillColor=none;align=left;verticalAlign=middle;spacingLeft=4;spacingRight=4;whiteSpace=wrap;overflow=hidden;rotatable=0;points=[];portConstraint=eastwest;part=1;labelBackgroundColor=none;strokeColor=#006658;fontColor=#5C5C5C;rounded=1;" parent="EWD9UEPrraGSUW-WTAQi-307" connectable="0" vertex="1">
      <mxGeometry width="56" height="30" as="geometry" />
    </mxCell>
    <mxCell id="EWD9UEPrraGSUW-WTAQi-309" value="row 2" style="shape=partialRectangle;top=0;left=0;right=0;bottom=1;html=1;align=left;verticalAlign=middle;fillColor=none;spacingLeft=60;spacingRight=4;whiteSpace=wrap;overflow=hidden;rotatable=0;points=[[0,0.5],[1,0.5]];portConstraint=eastwest;dropTarget=0;fontStyle=5;labelBackgroundColor=none;strokeColor=#006658;fontColor=#5C5C5C;rounded=1;" parent="EWD9UEPrraGSUW-WTAQi-302" vertex="1">
      <mxGeometry y="116" width="170" as="geometry" />
    </mxCell>
    <mxCell id="EWD9UEPrraGSUW-WTAQi-310" value="PK,FK2" style="shape=partialRectangle;fontStyle=1;top=0;left=0;bottom=0;html=1;fillColor=none;align=left;verticalAlign=middle;spacingLeft=4;spacingRight=4;whiteSpace=wrap;overflow=hidden;rotatable=0;points=[];portConstraint=eastwest;part=1;labelBackgroundColor=none;strokeColor=#006658;fontColor=#5C5C5C;rounded=1;" parent="EWD9UEPrraGSUW-WTAQi-309" connectable="0" vertex="1">
      <mxGeometry width="56" as="geometry" />
    </mxCell>
    <mxCell id="EWD9UEPrraGSUW-WTAQi-311" value="updated_at" style="shape=partialRectangle;top=0;left=0;right=0;bottom=1;html=1;align=left;verticalAlign=middle;fillColor=none;spacingLeft=60;spacingRight=4;whiteSpace=wrap;overflow=hidden;rotatable=0;points=[[0,0.5],[1,0.5]];portConstraint=eastwest;dropTarget=0;fontStyle=5;labelBackgroundColor=none;strokeColor=#006658;fontColor=#5C5C5C;rounded=1;" parent="EWD9UEPrraGSUW-WTAQi-302" vertex="1">
      <mxGeometry y="116" width="170" height="30" as="geometry" />
    </mxCell>
    <mxCell id="EWD9UEPrraGSUW-WTAQi-312" value="" style="shape=partialRectangle;fontStyle=1;top=0;left=0;bottom=0;html=1;fillColor=none;align=left;verticalAlign=middle;spacingLeft=4;spacingRight=4;whiteSpace=wrap;overflow=hidden;rotatable=0;points=[];portConstraint=eastwest;part=1;labelBackgroundColor=none;strokeColor=#006658;fontColor=#5C5C5C;rounded=1;" parent="EWD9UEPrraGSUW-WTAQi-311" connectable="0" vertex="1">
      <mxGeometry width="56" height="30" as="geometry" />
    </mxCell>
    <mxCell id="EWD9UEPrraGSUW-WTAQi-313" value="task_id" style="shape=partialRectangle;top=0;left=0;right=0;bottom=1;html=1;align=left;verticalAlign=middle;fillColor=none;spacingLeft=60;spacingRight=4;whiteSpace=wrap;overflow=hidden;rotatable=0;points=[[0,0.5],[1,0.5]];portConstraint=eastwest;dropTarget=0;fontStyle=5;labelBackgroundColor=none;strokeColor=#006658;fontColor=#5C5C5C;rounded=1;" parent="EWD9UEPrraGSUW-WTAQi-302" vertex="1">
      <mxGeometry y="146" width="170" height="30" as="geometry" />
    </mxCell>
    <mxCell id="EWD9UEPrraGSUW-WTAQi-314" value="FK" style="shape=partialRectangle;fontStyle=1;top=0;left=0;bottom=0;html=1;fillColor=none;align=left;verticalAlign=middle;spacingLeft=4;spacingRight=4;whiteSpace=wrap;overflow=hidden;rotatable=0;points=[];portConstraint=eastwest;part=1;labelBackgroundColor=none;strokeColor=#006658;fontColor=#5C5C5C;rounded=1;" parent="EWD9UEPrraGSUW-WTAQi-313" connectable="0" vertex="1">
      <mxGeometry width="59.5" height="30" as="geometry" />
    </mxCell>
    <mxCell id="EWD9UEPrraGSUW-WTAQi-315" value="COMMENTS" style="swimlane;html=1;fontStyle=0;childLayout=stackLayout;horizontal=1;startSize=26;fillColor=#f8cecc;horizontalStack=0;resizeParent=1;resizeLast=0;collapsible=1;marginBottom=0;swimlaneFillColor=#ffffff;align=center;rounded=1;shadow=0;comic=0;labelBackgroundColor=none;strokeWidth=1;fontFamily=Verdana;fontSize=14;strokeColor=#b85450;" parent="1" vertex="1">
      <mxGeometry x="600" y="420" width="170" height="180" as="geometry" />
    </mxCell>
    <mxCell id="EWD9UEPrraGSUW-WTAQi-326" value="task_id" style="shape=partialRectangle;top=0;left=0;right=0;bottom=1;html=1;align=left;verticalAlign=middle;fillColor=none;spacingLeft=60;spacingRight=4;whiteSpace=wrap;overflow=hidden;rotatable=0;points=[[0,0.5],[1,0.5]];portConstraint=eastwest;dropTarget=0;fontStyle=5;labelBackgroundColor=none;strokeColor=none;fontColor=#5C5C5C;rounded=1;" parent="EWD9UEPrraGSUW-WTAQi-315" vertex="1">
      <mxGeometry y="26" width="170" height="30" as="geometry" />
    </mxCell>
    <mxCell id="EWD9UEPrraGSUW-WTAQi-327" value="FK" style="shape=partialRectangle;fontStyle=1;top=0;left=0;bottom=0;html=1;fillColor=none;align=left;verticalAlign=middle;spacingLeft=4;spacingRight=4;whiteSpace=wrap;overflow=hidden;rotatable=0;points=[];portConstraint=eastwest;part=1;labelBackgroundColor=none;strokeColor=#006658;fontColor=#5C5C5C;rounded=1;" parent="EWD9UEPrraGSUW-WTAQi-326" connectable="0" vertex="1">
      <mxGeometry width="59.5" height="30" as="geometry" />
    </mxCell>
    <mxCell id="EWD9UEPrraGSUW-WTAQi-316" value="id" style="shape=partialRectangle;top=0;left=0;right=0;bottom=0;html=1;align=left;verticalAlign=middle;fillColor=none;spacingLeft=60;spacingRight=4;whiteSpace=wrap;overflow=hidden;rotatable=0;points=[[0,0.5],[1,0.5]];portConstraint=eastwest;dropTarget=0;fontStyle=5;labelBackgroundColor=none;strokeColor=#006658;fontColor=#5C5C5C;rounded=1;" parent="EWD9UEPrraGSUW-WTAQi-315" vertex="1">
      <mxGeometry y="56" width="170" height="30" as="geometry" />
    </mxCell>
    <mxCell id="EWD9UEPrraGSUW-WTAQi-317" value="PK" style="shape=partialRectangle;fontStyle=1;top=0;left=0;bottom=0;html=1;fillColor=none;align=left;verticalAlign=middle;spacingLeft=4;spacingRight=4;whiteSpace=wrap;overflow=hidden;rotatable=0;points=[];portConstraint=eastwest;part=1;labelBackgroundColor=none;strokeColor=#006658;fontColor=#5C5C5C;rounded=1;" parent="EWD9UEPrraGSUW-WTAQi-316" connectable="0" vertex="1">
      <mxGeometry width="56" height="30" as="geometry" />
    </mxCell>
    <mxCell id="EWD9UEPrraGSUW-WTAQi-318" value="content" style="shape=partialRectangle;top=0;left=0;right=0;bottom=1;html=1;align=left;verticalAlign=middle;fillColor=none;spacingLeft=60;spacingRight=4;whiteSpace=wrap;overflow=hidden;rotatable=0;points=[[0,0.5],[1,0.5]];portConstraint=eastwest;dropTarget=0;fontStyle=5;labelBackgroundColor=none;strokeColor=#006658;fontColor=#5C5C5C;rounded=1;" parent="EWD9UEPrraGSUW-WTAQi-315" vertex="1">
      <mxGeometry y="86" width="170" height="30" as="geometry" />
    </mxCell>
    <mxCell id="EWD9UEPrraGSUW-WTAQi-319" value="" style="shape=partialRectangle;fontStyle=1;top=0;left=0;bottom=0;html=1;fillColor=none;align=left;verticalAlign=middle;spacingLeft=4;spacingRight=4;whiteSpace=wrap;overflow=hidden;rotatable=0;points=[];portConstraint=eastwest;part=1;labelBackgroundColor=none;strokeColor=#006658;fontColor=#5C5C5C;rounded=1;" parent="EWD9UEPrraGSUW-WTAQi-318" connectable="0" vertex="1">
      <mxGeometry width="56" height="30" as="geometry" />
    </mxCell>
    <mxCell id="EWD9UEPrraGSUW-WTAQi-320" value="created_at" style="shape=partialRectangle;top=0;left=0;right=0;bottom=1;html=1;align=left;verticalAlign=middle;fillColor=none;spacingLeft=60;spacingRight=4;whiteSpace=wrap;overflow=hidden;rotatable=0;points=[[0,0.5],[1,0.5]];portConstraint=eastwest;dropTarget=0;fontStyle=5;labelBackgroundColor=none;strokeColor=none;fontColor=#5C5C5C;rounded=1;" parent="EWD9UEPrraGSUW-WTAQi-315" vertex="1">
      <mxGeometry y="116" width="170" height="30" as="geometry" />
    </mxCell>
    <mxCell id="EWD9UEPrraGSUW-WTAQi-321" value="" style="shape=partialRectangle;fontStyle=1;top=0;left=0;bottom=0;html=1;fillColor=none;align=left;verticalAlign=middle;spacingLeft=4;spacingRight=4;whiteSpace=wrap;overflow=hidden;rotatable=0;points=[];portConstraint=eastwest;part=1;labelBackgroundColor=none;strokeColor=#006658;fontColor=#5C5C5C;rounded=1;" parent="EWD9UEPrraGSUW-WTAQi-320" connectable="0" vertex="1">
      <mxGeometry width="56" height="30" as="geometry" />
    </mxCell>
    <mxCell id="EWD9UEPrraGSUW-WTAQi-322" value="row 2" style="shape=partialRectangle;top=0;left=0;right=0;bottom=1;html=1;align=left;verticalAlign=middle;fillColor=none;spacingLeft=60;spacingRight=4;whiteSpace=wrap;overflow=hidden;rotatable=0;points=[[0,0.5],[1,0.5]];portConstraint=eastwest;dropTarget=0;fontStyle=5;labelBackgroundColor=none;strokeColor=#006658;fontColor=#5C5C5C;rounded=1;" parent="EWD9UEPrraGSUW-WTAQi-315" vertex="1">
      <mxGeometry y="146" width="170" as="geometry" />
    </mxCell>
    <mxCell id="EWD9UEPrraGSUW-WTAQi-323" value="PK,FK2" style="shape=partialRectangle;fontStyle=1;top=0;left=0;bottom=0;html=1;fillColor=none;align=left;verticalAlign=middle;spacingLeft=4;spacingRight=4;whiteSpace=wrap;overflow=hidden;rotatable=0;points=[];portConstraint=eastwest;part=1;labelBackgroundColor=none;strokeColor=#006658;fontColor=#5C5C5C;rounded=1;" parent="EWD9UEPrraGSUW-WTAQi-322" connectable="0" vertex="1">
      <mxGeometry width="56" as="geometry" />
    </mxCell>
    <mxCell id="EWD9UEPrraGSUW-WTAQi-324" value="updated_at" style="shape=partialRectangle;top=0;left=0;right=0;bottom=1;html=1;align=left;verticalAlign=middle;fillColor=none;spacingLeft=60;spacingRight=4;whiteSpace=wrap;overflow=hidden;rotatable=0;points=[[0,0.5],[1,0.5]];portConstraint=eastwest;dropTarget=0;fontStyle=5;labelBackgroundColor=none;strokeColor=#006658;fontColor=#5C5C5C;rounded=1;" parent="EWD9UEPrraGSUW-WTAQi-315" vertex="1">
      <mxGeometry y="146" width="170" height="30" as="geometry" />
    </mxCell>
    <mxCell id="EWD9UEPrraGSUW-WTAQi-325" value="" style="shape=partialRectangle;fontStyle=1;top=0;left=0;bottom=0;html=1;fillColor=none;align=left;verticalAlign=middle;spacingLeft=4;spacingRight=4;whiteSpace=wrap;overflow=hidden;rotatable=0;points=[];portConstraint=eastwest;part=1;labelBackgroundColor=none;strokeColor=#006658;fontColor=#5C5C5C;rounded=1;" parent="EWD9UEPrraGSUW-WTAQi-324" connectable="0" vertex="1">
      <mxGeometry width="56" height="30" as="geometry" />
    </mxCell>
    <mxCell id="EWD9UEPrraGSUW-WTAQi-328" value="TAGS" style="swimlane;html=1;fontStyle=0;childLayout=stackLayout;horizontal=1;startSize=26;fillColor=#e1d5e7;horizontalStack=0;resizeParent=1;resizeLast=0;collapsible=1;marginBottom=0;swimlaneFillColor=#ffffff;align=center;rounded=1;shadow=0;comic=0;labelBackgroundColor=none;strokeWidth=1;fontFamily=Verdana;fontSize=14;strokeColor=#9673a6;" parent="1" vertex="1">
      <mxGeometry x="925" y="650" width="160" height="90" as="geometry" />
    </mxCell>
    <mxCell id="EWD9UEPrraGSUW-WTAQi-329" value="ID" style="shape=partialRectangle;top=0;left=0;right=0;bottom=0;html=1;align=left;verticalAlign=middle;fillColor=#e1d5e7;spacingLeft=60;spacingRight=4;whiteSpace=wrap;overflow=hidden;rotatable=0;points=[[0,0.5],[1,0.5]];portConstraint=eastwest;dropTarget=0;fontStyle=5;labelBackgroundColor=none;strokeColor=#9673a6;rounded=1;" parent="EWD9UEPrraGSUW-WTAQi-328" vertex="1">
      <mxGeometry y="26" width="160" height="30" as="geometry" />
    </mxCell>
    <mxCell id="EWD9UEPrraGSUW-WTAQi-330" value="PK" style="shape=partialRectangle;fontStyle=1;top=0;left=0;bottom=0;html=1;fillColor=#e1d5e7;align=left;verticalAlign=middle;spacingLeft=4;spacingRight=4;whiteSpace=wrap;overflow=hidden;rotatable=0;points=[];portConstraint=eastwest;part=1;labelBackgroundColor=none;strokeColor=#9673a6;rounded=1;" parent="EWD9UEPrraGSUW-WTAQi-329" connectable="0" vertex="1">
      <mxGeometry width="56" height="30" as="geometry" />
    </mxCell>
    <mxCell id="EWD9UEPrraGSUW-WTAQi-331" value="name" style="shape=partialRectangle;top=0;left=0;right=0;bottom=1;html=1;align=left;verticalAlign=middle;fillColor=#e1d5e7;spacingLeft=60;spacingRight=4;whiteSpace=wrap;overflow=hidden;rotatable=0;points=[[0,0.5],[1,0.5]];portConstraint=eastwest;dropTarget=0;fontStyle=5;labelBackgroundColor=none;strokeColor=#9673a6;rounded=1;" parent="EWD9UEPrraGSUW-WTAQi-328" vertex="1">
      <mxGeometry y="56" width="160" height="30" as="geometry" />
    </mxCell>
    <mxCell id="EWD9UEPrraGSUW-WTAQi-332" value="" style="shape=partialRectangle;fontStyle=1;top=0;left=0;bottom=0;html=1;fillColor=#e1d5e7;align=left;verticalAlign=middle;spacingLeft=4;spacingRight=4;whiteSpace=wrap;overflow=hidden;rotatable=0;points=[];portConstraint=eastwest;part=1;labelBackgroundColor=none;strokeColor=#9673a6;rounded=1;" parent="EWD9UEPrraGSUW-WTAQi-331" connectable="0" vertex="1">
      <mxGeometry width="56" height="30" as="geometry" />
    </mxCell>
    <mxCell id="EWD9UEPrraGSUW-WTAQi-335" value="TAGS" style="swimlane;html=1;fontStyle=0;childLayout=stackLayout;horizontal=1;startSize=26;fillColor=#e1d5e7;horizontalStack=0;resizeParent=1;resizeLast=0;collapsible=1;marginBottom=0;swimlaneFillColor=#ffffff;align=center;rounded=1;shadow=0;comic=0;labelBackgroundColor=none;strokeWidth=1;fontFamily=Verdana;fontSize=14;strokeColor=#9673a6;" parent="1" vertex="1">
      <mxGeometry x="925" y="770" width="160" height="90" as="geometry" />
    </mxCell>
    <mxCell id="EWD9UEPrraGSUW-WTAQi-336" value="ID" style="shape=partialRectangle;top=0;left=0;right=0;bottom=0;html=1;align=left;verticalAlign=middle;fillColor=#e1d5e7;spacingLeft=60;spacingRight=4;whiteSpace=wrap;overflow=hidden;rotatable=0;points=[[0,0.5],[1,0.5]];portConstraint=eastwest;dropTarget=0;fontStyle=5;labelBackgroundColor=none;strokeColor=#9673a6;rounded=1;" parent="EWD9UEPrraGSUW-WTAQi-335" vertex="1">
      <mxGeometry y="26" width="160" height="30" as="geometry" />
    </mxCell>
    <mxCell id="EWD9UEPrraGSUW-WTAQi-337" value="PK" style="shape=partialRectangle;fontStyle=1;top=0;left=0;bottom=0;html=1;fillColor=#e1d5e7;align=left;verticalAlign=middle;spacingLeft=4;spacingRight=4;whiteSpace=wrap;overflow=hidden;rotatable=0;points=[];portConstraint=eastwest;part=1;labelBackgroundColor=none;strokeColor=#9673a6;rounded=1;" parent="EWD9UEPrraGSUW-WTAQi-336" connectable="0" vertex="1">
      <mxGeometry width="56" height="30" as="geometry" />
    </mxCell>
    <mxCell id="EWD9UEPrraGSUW-WTAQi-338" value="name" style="shape=partialRectangle;top=0;left=0;right=0;bottom=1;html=1;align=left;verticalAlign=middle;fillColor=#e1d5e7;spacingLeft=60;spacingRight=4;whiteSpace=wrap;overflow=hidden;rotatable=0;points=[[0,0.5],[1,0.5]];portConstraint=eastwest;dropTarget=0;fontStyle=5;labelBackgroundColor=none;strokeColor=#9673a6;rounded=1;" parent="EWD9UEPrraGSUW-WTAQi-335" vertex="1">
      <mxGeometry y="56" width="160" height="30" as="geometry" />
    </mxCell>
    <mxCell id="EWD9UEPrraGSUW-WTAQi-339" value="" style="shape=partialRectangle;fontStyle=1;top=0;left=0;bottom=0;html=1;fillColor=#e1d5e7;align=left;verticalAlign=middle;spacingLeft=4;spacingRight=4;whiteSpace=wrap;overflow=hidden;rotatable=0;points=[];portConstraint=eastwest;part=1;labelBackgroundColor=none;strokeColor=#9673a6;rounded=1;" parent="EWD9UEPrraGSUW-WTAQi-338" connectable="0" vertex="1">
      <mxGeometry width="56" height="30" as="geometry" />
    </mxCell>
    <mxCell id="EWD9UEPrraGSUW-WTAQi-340" value="TAGS" style="swimlane;html=1;fontStyle=0;childLayout=stackLayout;horizontal=1;startSize=26;fillColor=#e1d5e7;horizontalStack=0;resizeParent=1;resizeLast=0;collapsible=1;marginBottom=0;swimlaneFillColor=#ffffff;align=center;rounded=1;shadow=0;comic=0;labelBackgroundColor=none;strokeWidth=1;fontFamily=Verdana;fontSize=14;strokeColor=#9673a6;" parent="1" vertex="1">
      <mxGeometry x="1000" y="-40" width="160" height="90" as="geometry" />
    </mxCell>
    <mxCell id="EWD9UEPrraGSUW-WTAQi-341" value="ID" style="shape=partialRectangle;top=0;left=0;right=0;bottom=0;html=1;align=left;verticalAlign=middle;fillColor=#e1d5e7;spacingLeft=60;spacingRight=4;whiteSpace=wrap;overflow=hidden;rotatable=0;points=[[0,0.5],[1,0.5]];portConstraint=eastwest;dropTarget=0;fontStyle=5;labelBackgroundColor=none;strokeColor=#9673a6;rounded=1;" parent="EWD9UEPrraGSUW-WTAQi-340" vertex="1">
      <mxGeometry y="26" width="160" height="30" as="geometry" />
    </mxCell>
    <mxCell id="EWD9UEPrraGSUW-WTAQi-342" value="PK" style="shape=partialRectangle;fontStyle=1;top=0;left=0;bottom=0;html=1;fillColor=#e1d5e7;align=left;verticalAlign=middle;spacingLeft=4;spacingRight=4;whiteSpace=wrap;overflow=hidden;rotatable=0;points=[];portConstraint=eastwest;part=1;labelBackgroundColor=none;strokeColor=#9673a6;rounded=1;" parent="EWD9UEPrraGSUW-WTAQi-341" connectable="0" vertex="1">
      <mxGeometry width="56" height="30" as="geometry" />
    </mxCell>
    <mxCell id="EWD9UEPrraGSUW-WTAQi-343" value="name" style="shape=partialRectangle;top=0;left=0;right=0;bottom=1;html=1;align=left;verticalAlign=middle;fillColor=#e1d5e7;spacingLeft=60;spacingRight=4;whiteSpace=wrap;overflow=hidden;rotatable=0;points=[[0,0.5],[1,0.5]];portConstraint=eastwest;dropTarget=0;fontStyle=5;labelBackgroundColor=none;strokeColor=#9673a6;rounded=1;" parent="EWD9UEPrraGSUW-WTAQi-340" vertex="1">
      <mxGeometry y="56" width="160" height="30" as="geometry" />
    </mxCell>
    <mxCell id="EWD9UEPrraGSUW-WTAQi-344" value="" style="shape=partialRectangle;fontStyle=1;top=0;left=0;bottom=0;html=1;fillColor=#e1d5e7;align=left;verticalAlign=middle;spacingLeft=4;spacingRight=4;whiteSpace=wrap;overflow=hidden;rotatable=0;points=[];portConstraint=eastwest;part=1;labelBackgroundColor=none;strokeColor=#9673a6;rounded=1;" parent="EWD9UEPrraGSUW-WTAQi-343" connectable="0" vertex="1">
      <mxGeometry width="56" height="30" as="geometry" />
    </mxCell>
    <mxCell id="EWD9UEPrraGSUW-WTAQi-345" value="TAGS" style="swimlane;html=1;fontStyle=0;childLayout=stackLayout;horizontal=1;startSize=26;fillColor=#e1d5e7;horizontalStack=0;resizeParent=1;resizeLast=0;collapsible=1;marginBottom=0;swimlaneFillColor=#ffffff;align=center;rounded=1;shadow=0;comic=0;labelBackgroundColor=none;strokeWidth=1;fontFamily=Verdana;fontSize=14;strokeColor=#9673a6;" parent="1" vertex="1">
      <mxGeometry x="1000" y="-170" width="160" height="90" as="geometry" />
    </mxCell>
    <mxCell id="EWD9UEPrraGSUW-WTAQi-346" value="ID" style="shape=partialRectangle;top=0;left=0;right=0;bottom=0;html=1;align=left;verticalAlign=middle;fillColor=#e1d5e7;spacingLeft=60;spacingRight=4;whiteSpace=wrap;overflow=hidden;rotatable=0;points=[[0,0.5],[1,0.5]];portConstraint=eastwest;dropTarget=0;fontStyle=5;labelBackgroundColor=none;strokeColor=#9673a6;rounded=1;" parent="EWD9UEPrraGSUW-WTAQi-345" vertex="1">
      <mxGeometry y="26" width="160" height="30" as="geometry" />
    </mxCell>
    <mxCell id="EWD9UEPrraGSUW-WTAQi-347" value="PK" style="shape=partialRectangle;fontStyle=1;top=0;left=0;bottom=0;html=1;fillColor=#e1d5e7;align=left;verticalAlign=middle;spacingLeft=4;spacingRight=4;whiteSpace=wrap;overflow=hidden;rotatable=0;points=[];portConstraint=eastwest;part=1;labelBackgroundColor=none;strokeColor=#9673a6;rounded=1;" parent="EWD9UEPrraGSUW-WTAQi-346" connectable="0" vertex="1">
      <mxGeometry width="56" height="30" as="geometry" />
    </mxCell>
    <mxCell id="EWD9UEPrraGSUW-WTAQi-348" value="name" style="shape=partialRectangle;top=0;left=0;right=0;bottom=1;html=1;align=left;verticalAlign=middle;fillColor=#e1d5e7;spacingLeft=60;spacingRight=4;whiteSpace=wrap;overflow=hidden;rotatable=0;points=[[0,0.5],[1,0.5]];portConstraint=eastwest;dropTarget=0;fontStyle=5;labelBackgroundColor=none;strokeColor=#9673a6;rounded=1;" parent="EWD9UEPrraGSUW-WTAQi-345" vertex="1">
      <mxGeometry y="56" width="160" height="30" as="geometry" />
    </mxCell>
    <mxCell id="EWD9UEPrraGSUW-WTAQi-349" value="" style="shape=partialRectangle;fontStyle=1;top=0;left=0;bottom=0;html=1;fillColor=#e1d5e7;align=left;verticalAlign=middle;spacingLeft=4;spacingRight=4;whiteSpace=wrap;overflow=hidden;rotatable=0;points=[];portConstraint=eastwest;part=1;labelBackgroundColor=none;strokeColor=#9673a6;rounded=1;" parent="EWD9UEPrraGSUW-WTAQi-348" connectable="0" vertex="1">
      <mxGeometry width="56" height="30" as="geometry" />
    </mxCell>
    <mxCell id="EWD9UEPrraGSUW-WTAQi-352" value="" style="shape=waypoint;sketch=0;size=6;pointerEvents=1;points=[];fillColor=#21C0A5;resizable=0;rotatable=0;perimeter=centerPerimeter;snapToPoint=1;fontSize=14;fontFamily=Verdana;strokeColor=#006658;fontColor=#5C5C5C;fontStyle=0;startSize=26;swimlaneFillColor=#ffffff;rounded=1;shadow=0;comic=0;labelBackgroundColor=none;strokeWidth=1;" parent="1" vertex="1">
      <mxGeometry x="900" y="-134" width="20" height="20" as="geometry" />
    </mxCell>
    <mxCell id="EWD9UEPrraGSUW-WTAQi-361" value="" style="edgeStyle=elbowEdgeStyle;rounded=0;orthogonalLoop=1;jettySize=auto;html=1;entryX=0.5;entryY=0;entryDx=0;entryDy=0;fillColor=#e1d5e7;strokeColor=#9673a6;" parent="1" target="EWD9UEPrraGSUW-WTAQi-356" edge="1">
      <mxGeometry relative="1" as="geometry">
        <mxPoint x="670" y="-180" as="sourcePoint" />
        <mxPoint x="1080" y="-170" as="targetPoint" />
        <Array as="points" />
      </mxGeometry>
    </mxCell>
    <mxCell id="EWD9UEPrraGSUW-WTAQi-356" value="TAGS" style="swimlane;html=1;fontStyle=0;childLayout=stackLayout;horizontal=1;startSize=26;fillColor=#e1d5e7;horizontalStack=0;resizeParent=1;resizeLast=0;collapsible=1;marginBottom=0;swimlaneFillColor=#ffffff;align=center;rounded=1;shadow=0;comic=0;labelBackgroundColor=none;strokeWidth=1;fontFamily=Verdana;fontSize=14;strokeColor=#9673a6;" parent="1" vertex="1">
      <mxGeometry x="580" y="-174" width="160" height="90" as="geometry" />
    </mxCell>
    <mxCell id="EWD9UEPrraGSUW-WTAQi-357" value="ID" style="shape=partialRectangle;top=0;left=0;right=0;bottom=0;html=1;align=left;verticalAlign=middle;fillColor=#e1d5e7;spacingLeft=60;spacingRight=4;whiteSpace=wrap;overflow=hidden;rotatable=0;points=[[0,0.5],[1,0.5]];portConstraint=eastwest;dropTarget=0;fontStyle=5;labelBackgroundColor=none;strokeColor=#9673a6;rounded=1;" parent="EWD9UEPrraGSUW-WTAQi-356" vertex="1">
      <mxGeometry y="26" width="160" height="30" as="geometry" />
    </mxCell>
    <mxCell id="EWD9UEPrraGSUW-WTAQi-358" value="PK" style="shape=partialRectangle;fontStyle=1;top=0;left=0;bottom=0;html=1;fillColor=#e1d5e7;align=left;verticalAlign=middle;spacingLeft=4;spacingRight=4;whiteSpace=wrap;overflow=hidden;rotatable=0;points=[];portConstraint=eastwest;part=1;labelBackgroundColor=none;strokeColor=#9673a6;rounded=1;" parent="EWD9UEPrraGSUW-WTAQi-357" connectable="0" vertex="1">
      <mxGeometry width="56" height="30" as="geometry" />
    </mxCell>
    <mxCell id="EWD9UEPrraGSUW-WTAQi-359" value="name" style="shape=partialRectangle;top=0;left=0;right=0;bottom=1;html=1;align=left;verticalAlign=middle;fillColor=#e1d5e7;spacingLeft=60;spacingRight=4;whiteSpace=wrap;overflow=hidden;rotatable=0;points=[[0,0.5],[1,0.5]];portConstraint=eastwest;dropTarget=0;fontStyle=5;labelBackgroundColor=none;strokeColor=#9673a6;rounded=1;" parent="EWD9UEPrraGSUW-WTAQi-356" vertex="1">
      <mxGeometry y="56" width="160" height="30" as="geometry" />
    </mxCell>
    <mxCell id="EWD9UEPrraGSUW-WTAQi-360" value="" style="shape=partialRectangle;fontStyle=1;top=0;left=0;bottom=0;html=1;fillColor=#e1d5e7;align=left;verticalAlign=middle;spacingLeft=4;spacingRight=4;whiteSpace=wrap;overflow=hidden;rotatable=0;points=[];portConstraint=eastwest;part=1;labelBackgroundColor=none;strokeColor=#9673a6;rounded=1;" parent="EWD9UEPrraGSUW-WTAQi-359" connectable="0" vertex="1">
      <mxGeometry width="56" height="30" as="geometry" />
    </mxCell>
  </root>
</mxGraphModel>
